<?xml version="1.0" standalone="no"?>
<!DOCTYPE svg PUBLIC "-//W3C//DTD SVG 20010904//EN"
 "http://www.w3.org/TR/2001/REC-SVG-20010904/DTD/svg10.dtd">
<svg version="1.0" xmlns="http://www.w3.org/2000/svg"
 width="512.000000pt" height="512.000000pt" viewBox="0 0 512.000000 512.000000"
 preserveAspectRatio="xMidYMid meet">
<metadata>
Created by potrace 1.14, written by Peter Selinger 2001-2017
</metadata>
<g transform="translate(0.000000,512.000000) scale(0.100000,-0.100000)"
fill="#000000" stroke="none">
<path d="M0 4774 c0 -326 1 -346 18 -338 29 13 302 18 302 5 0 -17 148 -14
206 4 27 8 64 15 82 15 17 0 32 5 32 10 0 6 13 10 30 10 33 0 122 21 130 31
10 12 80 20 80 9 0 -13 57 -13 65 0 3 6 36 10 73 10 59 0 69 3 88 26 13 15 25
21 29 15 3 -6 1 -11 -4 -11 -6 0 -11 -4 -11 -10 0 -5 14 -8 30 -6 32 4 41 -8
15 -18 -9 -3 -15 -14 -13 -23 2 -14 -5 -19 -34 -21 -40 -3 -46 -10 -27 -29 20
-20 -56 -27 -140 -14 -127 21 -126 21 -125 -16 0 -38 1 -38 -31 -17 -23 15
-25 15 -32 -2 -4 -10 -2 -19 5 -22 7 -2 19 -10 26 -18 8 -8 23 -14 33 -15 12
0 9 -4 -9 -11 -16 -5 -28 -16 -28 -23 0 -7 -7 -16 -16 -19 -8 -3 -13 -10 -9
-15 3 -5 1 -12 -4 -15 -5 -4 -12 -2 -16 4 -4 6 -36 8 -83 4 -115 -8 -124 -11
-116 -36 6 -20 4 -21 -60 -14 -55 5 -66 4 -66 -9 0 -16 -15 -20 -24 -6 -3 5
-30 14 -58 21 -29 6 -61 14 -71 17 -9 2 -17 0 -17 -6 0 -6 6 -11 14 -11 8 0
18 -5 22 -11 5 -9 -1 -10 -20 -5 -16 4 -26 2 -26 -5 0 -6 9 -13 20 -16 10 -3
22 -13 25 -23 3 -9 14 -25 25 -35 29 -27 25 -45 -10 -45 -16 0 -30 -4 -30 -10
0 -5 7 -10 16 -10 8 0 13 -4 9 -9 -3 -5 0 -13 7 -17 8 -5 4 -10 -11 -15 -16
-7 -20 -14 -16 -32 5 -18 1 -25 -22 -34 l-28 -10 33 -13 33 -12 -36 -34 c-37
-33 -37 -33 -73 -18 -64 28 -121 43 -127 34 -3 -5 0 -12 7 -16 8 -5 4 -10 -10
-15 -27 -10 -28 -26 -2 -34 11 -3 20 -15 20 -25 0 -10 6 -20 13 -23 7 -2 0
-10 -15 -17 -33 -15 -36 -30 -8 -30 27 0 25 -16 -5 -36 -28 -18 -33 -34 -10
-34 22 0 19 -8 -15 -37 -45 -38 -39 -57 22 -73 29 -8 45 -16 35 -18 -18 -4
-20 -31 -2 -45 6 -4 0 -15 -15 -26 l-25 -20 26 -9 c14 -6 37 -8 52 -5 34 7 35
-4 1 -17 -17 -7 -24 -15 -20 -26 3 -8 -1 -17 -10 -21 -8 -3 -13 -11 -10 -18 2
-7 -8 -18 -22 -25 l-27 -13 30 -8 c17 -3 22 -7 13 -8 -25 -1 -23 -21 2 -21 11
0 20 -5 20 -11 0 -5 4 -8 8 -5 5 3 22 1 38 -3 l29 -8 -27 -13 c-27 -13 -41
-40 -29 -59 4 -6 29 -14 57 -17 27 -4 56 -11 66 -15 26 -14 15 -41 -23 -53
-28 -10 -43 -8 -83 7 -43 16 -55 17 -93 5 l-43 -12 0 -348 0 -348 28 -1 c16
-1 20 -3 9 -6 -9 -2 -17 -9 -17 -14 0 -6 -4 -7 -10 -4 -6 4 -10 -11 -10 -39
l0 -46 32 5 33 5 -32 -12 c-41 -14 -47 -48 -8 -40 17 3 27 -1 31 -13 4 -10 9
-13 13 -6 4 6 26 12 49 13 23 1 42 5 42 10 0 4 14 8 31 8 19 0 28 -4 23 -11
-3 -6 -15 -8 -27 -5 -15 4 -17 2 -8 -7 6 -6 11 -15 11 -19 0 -13 -38 -9 -43 5
-4 9 -8 9 -15 -2 -6 -8 -17 -11 -26 -8 -8 3 -18 2 -21 -3 -4 -6 -24 -10 -46
-10 l-39 0 0 -89 c0 -62 4 -91 13 -94 10 -4 10 -6 0 -6 -10 -1 -13 -44 -13
-181 l0 -180 28 -1 c15 -1 31 -1 36 0 5 1 13 -4 17 -11 5 -7 22 -13 38 -13 22
0 33 6 41 24 10 22 12 23 24 5 13 -17 14 -17 20 4 4 12 10 22 14 23 21 2 59
10 72 15 12 4 10 9 -8 25 -15 12 -26 33 -29 59 -6 45 -23 65 -23 28 -1 -20 -2
-21 -10 -6 -7 11 -6 25 1 42 11 24 13 24 25 8 13 -16 13 -16 14 1 0 10 -5 27
-11 39 -13 24 -2 39 14 18 16 -21 54 -13 68 13 10 17 8 24 -11 39 -12 10 -19
18 -14 18 4 0 -1 7 -12 15 -22 17 -30 16 121 18 120 2 120 2 162 -29 23 -17
39 -35 35 -40 -4 -4 5 0 20 9 16 10 28 14 28 10 0 -5 4 -2 9 6 8 12 12 13 26
1 8 -7 14 -18 12 -24 -5 -15 42 -46 59 -39 8 3 18 -5 23 -18 7 -18 10 -19 10
-6 1 12 9 17 31 17 17 0 30 -4 30 -10 0 -5 -4 -10 -10 -10 -5 0 -15 -10 -21
-22 -12 -22 -11 -23 8 -5 19 16 21 16 27 2 8 -22 8 -27 -1 -22 -5 3 -8 -5 -8
-16 -1 -12 -5 -33 -9 -46 l-8 -24 21 20 c13 12 23 35 24 56 2 20 7 40 11 44
10 10 42 -12 38 -27 -1 -6 4 -21 13 -33 15 -21 15 -21 15 6 0 17 5 27 14 27
12 0 13 -6 5 -30 -6 -16 -9 -35 -6 -42 3 -7 8 2 12 20 8 34 25 54 25 29 0 -8
7 -17 15 -21 8 -3 15 -17 15 -32 0 -21 3 -24 13 -15 10 8 19 7 33 -4 18 -14
18 -16 1 -29 -21 -16 -22 -27 -2 -20 9 4 30 -8 52 -30 21 -20 41 -36 46 -36 4
0 5 -15 1 -34 -3 -19 -2 -41 2 -48 13 -21 4 -82 -15 -101 -15 -15 -16 -27 -10
-68 7 -45 5 -52 -27 -100 -20 -30 -34 -63 -34 -81 0 -22 -13 -46 -45 -84 -25
-28 -45 -58 -45 -65 0 -7 -63 -74 -140 -150 -140 -137 -266 -234 -379 -289
-62 -31 -239 -90 -268 -90 -11 0 -24 -5 -30 -11 -7 -7 -33 -13 -60 -14 -26 -2
-61 -8 -76 -14 -16 -6 -35 -11 -43 -11 -12 0 -14 -38 -14 -240 l0 -240 243 1
c133 0 237 3 230 5 -7 3 -9 12 -6 20 3 7 9 11 14 8 5 -2 19 0 31 7 13 6 20 8
16 4 -4 -4 0 -14 10 -22 9 -8 12 -12 5 -9 -6 4 -15 1 -18 -4 -5 -8 7 -10 36
-8 23 2 44 9 47 16 2 6 -3 12 -12 12 -8 0 -18 4 -21 10 -4 7 3 7 20 0 15 -6
30 -8 35 -5 5 3 11 1 15 -5 3 -5 -1 -10 -9 -10 -9 0 -16 -3 -16 -8 0 -4 27 -9
60 -10 54 -2 61 0 76 23 10 15 15 38 12 60 -3 25 0 35 9 35 8 0 24 9 35 20 16
15 24 17 29 8 5 -8 1 -15 -10 -20 -25 -9 -36 -28 -17 -28 22 0 20 -27 -1 -33
-17 -4 -17 -5 0 -6 21 -1 22 -14 2 -31 -28 -23 -16 -30 51 -30 41 0 63 4 59
10 -3 6 -1 10 4 10 6 0 11 -4 11 -10 0 -12 146 -12 175 -1 11 5 27 5 37 0 13
-7 15 -5 10 14 -5 19 -4 20 11 9 9 -8 21 -11 27 -7 5 3 10 -1 10 -9 0 -18 5
-19 35 -6 18 7 19 8 3 15 -23 9 -23 25 0 26 10 0 12 3 4 6 -20 8 -14 20 13 25
22 5 24 2 20 -21 -11 -61 -11 -61 191 -61 125 1 182 5 178 12 -3 5 -17 8 -30
5 -34 -6 -51 7 -35 27 14 17 36 23 27 7 -3 -5 3 -11 13 -14 16 -4 17 -1 10 31
-8 38 -5 52 14 52 13 1 57 35 57 44 0 3 -8 6 -17 6 -9 0 -14 2 -11 5 3 4 18 3
33 -1 17 -4 23 -9 15 -14 -9 -6 -8 -14 4 -33 12 -17 14 -27 6 -32 -7 -4 -3
-17 12 -38 40 -57 39 -57 160 -56 69 0 105 3 93 9 -11 4 -31 22 -44 41 -21 28
-22 31 -5 24 10 -5 33 -9 49 -9 27 -1 30 2 28 27 -1 21 3 27 18 27 21 0 23 -7
9 -30 -6 -10 -4 -22 6 -38 9 -13 14 -25 12 -26 -2 -2 -12 -8 -22 -13 -14 -8 1
-11 62 -11 45 -1 84 3 87 8 3 6 16 10 28 9 21 0 21 -1 2 -9 -14 -6 -5 -9 35
-9 l55 -1 -40 20 c-51 24 -83 51 -69 57 22 8 -19 71 -50 77 -15 3 -43 19 -61
34 -32 28 -107 50 -195 56 -50 4 -85 30 -113 84 -13 26 -29 57 -37 69 -8 12
-11 26 -7 30 9 9 28 -17 21 -29 -3 -4 0 -8 5 -8 6 0 11 7 11 15 0 8 4 15 8 15
12 0 43 -35 37 -41 -2 -3 5 -6 17 -6 12 -1 26 -7 32 -14 8 -9 7 -10 -6 -6 -10
3 -20 2 -23 -3 -4 -6 1 -10 9 -10 10 0 13 -6 10 -15 -4 -8 -1 -15 5 -15 6 0
11 4 11 10 0 5 8 9 19 7 22 -3 53 -32 44 -41 -4 -3 -1 -6 5 -6 17 0 15 35 -3
50 -8 7 -15 20 -15 30 0 10 -7 23 -15 30 -17 14 -20 30 -5 30 9 0 32 -42 34
-63 1 -5 9 -15 20 -22 10 -8 16 -21 13 -29 -4 -11 11 -26 27 -26 1 0 3 13 4
30 2 20 -2 30 -12 30 -8 0 -17 7 -20 16 -5 14 -4 15 8 5 11 -9 15 -8 20 6 4
10 2 19 -3 21 -6 2 -9 8 -6 12 3 5 -4 15 -16 23 -15 11 -17 16 -7 20 9 3 7 7
-7 13 -24 9 -105 90 -105 104 0 19 16 10 38 -20 25 -33 45 -40 35 -12 -3 9 2
6 13 -8 18 -23 31 -45 59 -95 25 -45 40 -65 52 -65 7 0 13 -4 13 -10 0 -5 5
-10 11 -10 8 0 7 5 -1 15 -7 9 -10 18 -7 22 4 3 -5 14 -18 25 -14 11 -25 26
-25 33 0 8 -9 19 -21 25 -20 11 -20 12 -2 26 12 9 13 12 3 9 -11 -4 -34 22
-78 87 -63 95 -126 175 -204 260 -24 26 -51 62 -60 79 -9 17 -26 37 -37 45
-11 8 -36 48 -56 90 -19 42 -46 90 -59 108 -13 17 -36 56 -51 86 -15 30 -41
70 -58 87 -17 18 -26 33 -20 33 7 0 15 -5 19 -12 10 -15 35 71 28 97 -3 12 -1
33 5 48 7 17 7 28 1 32 -16 10 -11 43 8 54 13 8 14 13 5 19 -10 6 -6 17 13 45
13 20 31 37 38 37 7 0 21 9 31 20 19 21 7 28 -13 8 -6 -6 -14 -9 -17 -6 -8 8
76 99 86 92 5 -3 9 2 9 10 0 9 4 16 9 16 4 0 24 13 42 30 23 20 46 30 69 31
25 1 28 3 12 6 -15 3 -22 10 -18 19 4 11 0 13 -19 8 -23 -6 -25 -3 -25 29 0
20 -5 39 -11 42 -17 11 -23 -3 -9 -20 10 -12 10 -18 0 -30 -6 -8 -9 -19 -5
-25 8 -12 -44 -65 -53 -55 -4 3 0 10 8 15 8 5 15 24 16 42 5 57 20 98 38 98
15 0 38 38 31 50 -3 6 1 7 10 4 9 -4 14 -13 11 -20 -3 -8 -9 -21 -12 -29 -3
-8 -2 -15 4 -15 15 0 31 54 21 72 -6 10 -4 15 6 15 8 0 15 -9 15 -19 0 -26 15
-22 28 7 15 32 27 32 30 0 1 -18 -4 -26 -21 -30 -24 -6 -56 -45 -37 -45 5 0
10 3 10 8 0 16 41 33 58 23 15 -9 14 -11 -8 -20 -23 -9 -23 -10 -4 -10 32 -1
50 24 33 47 -7 9 -10 14 -5 10 4 -3 19 0 34 8 19 10 29 10 37 2 7 -7 6 -12 -2
-15 -7 -3 -13 -10 -13 -16 0 -8 4 -7 12 1 17 17 31 15 24 -3 -9 -25 10 -17 24
11 l14 25 18 -23 c15 -20 20 -21 35 -10 10 6 25 15 33 18 8 4 37 25 63 46 45
38 49 39 66 24 11 -10 42 -19 72 -21 30 -2 54 -5 54 -5 0 -1 17 -2 38 -4 44
-3 57 -13 37 -26 -19 -12 -53 -13 -46 -1 7 10 -20 9 -30 -2 -12 -12 -26 -8
-18 5 4 6 3 8 -3 5 -6 -4 -8 -18 -5 -32 2 -14 0 -25 -6 -25 -5 0 -13 -7 -16
-15 -5 -14 -2 -14 23 1 16 10 27 23 24 29 -2 7 3 15 13 19 12 4 15 2 10 -9 -6
-17 9 -21 19 -5 3 6 11 10 17 10 6 0 1 -9 -12 -20 -13 -11 -28 -20 -34 -20 -6
0 -22 -12 -35 -25 -13 -14 -27 -25 -32 -25 -5 0 -9 -5 -9 -11 0 -13 39 -2 62
18 11 10 18 11 23 3 4 -7 -2 -14 -14 -17 -11 -3 -18 -9 -15 -14 3 -5 0 -9 -6
-9 -6 0 -9 -4 -6 -8 5 -9 -44 -58 -54 -55 -3 1 -9 -14 -15 -34 -10 -35 -25
-36 -25 -1 0 11 -7 18 -20 18 -21 0 -28 -24 -10 -35 6 -3 10 -14 10 -24 0 -11
9 -21 22 -24 12 -4 19 -9 15 -13 -4 -4 -2 -13 4 -20 13 -16 -10 -44 -35 -44
-9 0 -16 -1 -16 -2 1 -2 7 -28 14 -58 l13 -55 8 58 c5 38 12 57 21 57 8 0 14
-5 14 -11 0 -5 5 -7 11 -3 8 4 9 -1 4 -17 -18 -57 -18 -55 -6 -39 17 24 30 -5
23 -54 -5 -37 -4 -40 11 -28 9 8 19 22 22 33 10 31 33 -1 34 -47 1 -81 12
-143 26 -138 7 3 16 0 20 -5 3 -6 11 -9 16 -5 5 3 7 10 4 15 -4 5 -1 9 5 9 7
0 9 -7 6 -16 -3 -9 -6 -18 -6 -20 0 -2 -9 -4 -19 -4 -14 0 -20 -9 -23 -35 -5
-40 7 -70 17 -43 6 15 8 15 26 0 20 -17 26 -52 9 -52 -5 0 -14 8 -19 18 -9 15
-10 13 -11 -9 0 -18 6 -28 20 -32 11 -3 23 -1 26 4 3 5 14 9 25 9 12 0 28 14
40 35 22 37 49 47 49 18 0 -10 -14 -26 -30 -35 -36 -21 -39 -52 -8 -78 19 -15
20 -20 9 -34 -7 -9 -19 -16 -25 -16 -6 0 -24 -14 -40 -30 -16 -17 -33 -30 -36
-30 -9 0 -69 -56 -90 -83 -13 -18 -11 -19 31 -16 43 3 177 68 224 109 11 10
35 26 54 36 55 31 66 38 91 61 26 26 58 38 68 28 4 -4 -3 -15 -15 -25 -13 -10
-23 -23 -23 -28 0 -6 -19 -25 -41 -44 -23 -18 -49 -40 -58 -49 -9 -9 -24 -19
-34 -22 -10 -4 -17 -13 -15 -21 3 -14 -46 -66 -62 -66 -5 0 -22 -12 -37 -26
l-28 -27 25 8 c14 4 50 20 80 36 30 16 62 29 70 29 17 0 82 31 106 51 25 21
27 1 3 -29 -31 -36 -124 -115 -148 -124 -11 -4 -23 -13 -27 -20 -6 -10 -5 -11
7 -1 13 10 29 14 112 27 26 5 94 39 190 96 31 18 37 19 37 6 0 -8 -13 -22 -30
-31 -16 -8 -33 -21 -37 -28 -4 -8 -33 -31 -63 -52 -61 -42 -120 -94 -120 -107
0 -5 9 -4 19 2 11 5 36 10 56 10 20 0 45 5 56 10 24 14 26 -5 2 -20 -14 -8 -7
-9 27 -3 25 4 74 6 109 5 39 -2 67 1 71 8 4 6 40 13 81 15 41 2 78 4 82 4 5 1
5 6 2 11 -4 6 13 10 44 10 28 0 51 5 51 10 0 6 10 10 23 10 l22 1 -23 12 -23
13 21 27 c15 19 17 27 8 27 -7 1 5 16 26 35 22 19 36 35 32 35 -4 0 -2 9 4 21
7 11 17 18 24 16 7 -3 13 1 13 9 0 25 -11 18 -125 -79 -24 -21 -47 -35 -51
-31 -9 9 152 155 166 149 7 -2 10 1 7 8 -7 20 32 38 60 27 25 -9 46 3 26 15
-6 4 -7 11 -4 17 7 11 3 10 -43 -9 -19 -8 -16 14 4 35 51 53 54 58 44 86 -7
17 -7 26 -1 26 6 0 10 -7 10 -16 0 -9 7 -14 17 -12 22 4 29 28 9 28 -9 0 -16
5 -16 10 0 6 8 10 18 10 10 0 26 10 37 23 l20 22 3 -21 c3 -21 4 -21 34 7 32
29 33 54 2 28 -9 -8 -31 -14 -47 -15 -17 -1 -36 -9 -42 -18 -23 -31 -22 -16 2
35 13 27 22 55 20 62 -3 7 -8 4 -12 -8 -22 -63 -66 -122 -268 -359 -104 -122
-174 -186 -204 -186 -8 0 4 19 29 42 43 43 179 219 341 443 48 66 119 161 157
210 39 50 96 128 128 175 120 175 156 226 182 260 33 42 108 188 145 283 23
61 26 108 7 107 -11 -1 -58 -45 -70 -66 -10 -15 -11 -9 -8 34 3 31 1 50 -5 47
-5 -4 -9 -16 -9 -28 0 -14 -3 -18 -8 -10 -5 8 -14 3 -27 -17 -11 -17 -23 -30
-26 -30 -15 0 -5 50 12 66 11 9 19 13 19 8 0 -5 8 7 19 26 13 25 15 37 7 42
-8 6 -8 8 1 8 7 0 10 6 7 14 -3 8 -1 17 5 20 7 5 7 15 -1 31 -13 28 -19 30
-36 13 -9 -9 -12 -9 -12 0 0 7 -8 12 -17 12 -14 0 -15 2 -5 9 10 6 10 10 -2
20 -8 7 -20 10 -26 6 -6 -4 -10 5 -10 22 0 18 -8 33 -21 41 -15 10 -19 20 -15
36 4 15 -1 33 -14 49 -11 14 -20 29 -20 34 -1 4 -11 21 -24 36 -24 29 -89 47
-101 27 -4 -6 -15 -8 -25 -5 -13 4 -20 0 -25 -14 -3 -10 -12 -21 -19 -24 -19
-8 -61 17 -60 35 1 13 -9 15 -63 12 -49 -3 -68 -1 -80 12 -13 12 -17 13 -24 2
-7 -10 -9 -9 -9 5 0 12 -8 17 -30 17 -16 0 -30 -5 -30 -11 0 -5 -4 -8 -8 -5
-5 3 -8 15 -7 28 2 16 -7 28 -29 40 -24 13 -27 17 -12 18 19 0 19 1 -2 20 -12
11 -27 20 -34 20 -9 0 -9 3 2 10 8 5 11 10 5 11 -5 0 -1 4 10 9 17 7 14 9 -13
9 -44 1 -38 25 7 29 27 3 30 6 21 18 -7 7 -17 11 -23 7 -5 -3 -16 2 -24 12
-11 16 -13 17 -13 3 0 -23 -18 -32 -36 -17 -10 8 -12 15 -4 23 16 16 12 24
-20 31 -26 6 -29 9 -19 27 8 15 8 22 -1 28 -7 4 -9 13 -5 20 4 7 2 16 -6 21
-23 14 39 59 76 56 19 -1 29 -7 27 -15 -2 -10 5 -12 30 -7 39 9 58 22 58 41 0
21 22 17 80 -12 44 -22 56 -24 75 -14 25 14 24 46 -4 68 -14 12 -13 16 15 40
16 15 33 35 37 45 3 9 13 17 22 17 8 0 15 7 15 15 0 8 7 15 15 15 8 0 15 6 16
13 3 31 6 44 19 75 8 17 20 32 27 32 7 0 13 7 13 15 0 18 -34 33 -93 41 -76
10 -87 14 -128 51 -22 20 -50 38 -62 39 -12 1 -25 3 -30 3 -4 1 -12 12 -17 26
-13 34 -36 41 -69 22 -28 -17 -27 -17 -166 43 -22 9 -69 27 -105 40 -36 13
-74 32 -84 42 -11 10 -32 24 -48 30 -15 7 -28 16 -28 20 0 5 -8 8 -17 8 -10 0
-31 11 -47 25 -34 29 -39 30 -56 10 -9 -11 -9 -22 1 -52 6 -21 16 -41 21 -44
5 -3 4 -18 -2 -34 -9 -23 -8 -35 7 -62 16 -30 46 -50 66 -45 5 1 4 -5 -2 -15
-6 -12 -5 -26 5 -45 8 -15 10 -28 5 -28 -6 0 -10 -12 -10 -27 1 -51 -4 -93
-11 -93 -4 0 -19 -24 -33 -54 -14 -29 -40 -66 -59 -81 -21 -17 -28 -29 -20
-32 24 -9 12 -21 -20 -18 -49 4 -50 4 -44 14 3 5 14 7 25 4 29 -7 33 31 6 63
-12 14 -25 22 -29 16 -9 -16 -68 -21 -62 -6 3 8 1 16 -4 19 -13 8 -1 35 15 35
8 0 17 5 21 12 4 7 3 8 -4 4 -7 -4 -12 -1 -12 8 0 9 -5 16 -11 16 -6 0 -8 8
-4 19 4 13 -2 23 -20 35 -21 14 -24 20 -15 31 7 8 9 18 7 23 -9 13 7 30 33 35
51 10 60 17 47 38 -6 10 -19 19 -27 20 -10 0 -11 2 -2 6 6 2 10 9 7 13 -3 5 6
7 20 4 14 -2 25 0 25 6 0 5 -5 10 -11 10 -5 0 -8 4 -5 9 4 5 0 11 -6 14 -7 2
6 3 30 1 23 -1 42 2 42 7 0 6 -8 8 -19 4 -10 -3 -26 -3 -35 1 -21 8 -21 34 0
34 22 0 12 24 -12 28 -16 3 -17 1 -4 -8 12 -8 8 -10 -17 -8 -17 1 -30 5 -27 9
2 4 0 10 -6 14 -5 3 -10 1 -10 -5 0 -6 -4 -9 -10 -5 -5 3 -6 13 -3 22 4 10 2
14 -5 9 -6 -3 -13 -2 -16 3 -4 5 5 11 19 13 14 2 25 8 25 13 -1 6 -8 9 -16 7
-28 -6 -56 18 -50 42 4 15 -2 30 -16 46 -21 22 -21 23 -3 36 18 13 18 14 -3
14 -12 0 -22 5 -22 10 0 6 5 10 11 10 20 0 48 44 37 57 -10 12 -48 9 -73 -5
-5 -4 -17 -7 -26 -7 -14 -1 -16 6 -13 34 2 20 1 28 -2 19 -8 -25 -23 -22 -17
2 6 24 43 45 96 55 20 4 34 12 31 17 -4 5 -15 7 -26 5 -14 -4 -18 -1 -16 11 4
20 48 30 48 11 0 -7 3 -10 6 -7 3 4 -2 20 -11 37 -16 31 -56 43 -70 21 -4 -6
-10 -8 -15 -5 -5 3 -16 -2 -25 -12 -16 -16 -17 -15 -13 3 2 12 13 20 28 22 14
2 32 12 39 24 10 15 10 18 0 12 -9 -5 -10 -2 -6 9 3 9 2 19 -3 22 -6 4 -10 1
-10 -4 0 -6 -7 -11 -16 -11 -10 0 -13 6 -9 19 7 22 -21 37 -40 21 -9 -7 -15
-7 -19 -1 -4 5 -1 13 4 16 15 9 -17 45 -39 45 -12 0 -10 5 8 19 l24 19 -41 7
c-23 4 -60 4 -82 0 -34 -6 -40 -4 -40 10 0 15 -6 17 -41 11 -23 -4 -73 -18
-112 -31 -81 -29 -77 -28 -77 -16 0 5 9 13 20 16 11 3 20 11 20 17 0 14 -75 1
-130 -24 -25 -11 -65 -26 -90 -35 -24 -8 -49 -22 -55 -30 -9 -12 -13 -12 -30
1 -20 15 -20 15 1 16 12 0 31 9 44 20 13 11 27 20 32 20 5 0 6 5 2 12 -4 7 -3
8 4 4 6 -4 39 5 72 19 74 31 225 82 300 102 90 23 420 28 570 9 526 -70 988
-322 1295 -706 32 -40 61 -68 67 -64 7 4 8 2 4 -4 -9 -15 132 -223 155 -229 9
-3 20 -14 22 -25 3 -11 10 -17 16 -13 14 8 14 -1 0 -27 -8 -15 -8 -23 1 -32 8
-8 9 -6 4 8 -6 15 -4 17 6 11 8 -5 11 -4 7 3 -15 23 5 42 43 42 29 0 39 -4 42
-17 3 -15 10 -12 39 17 19 20 39 44 44 55 8 19 9 19 12 -3 6 -30 23 -18 23 17
0 15 7 36 15 47 8 10 15 33 16 49 1 24 3 25 6 8 7 -34 18 -28 31 16 15 47 15
81 2 81 -18 0 -10 23 17 52 21 22 23 28 10 28 -22 0 -21 8 3 48 13 21 16 32 7
32 -6 0 1 11 16 25 23 22 27 34 27 80 0 68 6 82 41 101 18 9 29 22 29 36 0 12
7 29 16 39 8 9 17 39 20 65 3 27 9 51 14 52 6 2 10 21 10 43 0 26 4 39 13 39
8 0 22 25 33 56 10 31 27 60 36 65 10 5 18 17 18 25 0 9 13 29 30 46 16 16 30
36 30 44 0 8 18 33 40 55 22 23 40 47 40 53 0 6 9 17 19 23 11 7 21 22 23 35
2 12 14 28 28 35 26 13 43 45 34 67 -6 16 29 31 46 21 5 -3 10 3 10 14 l0 21
-2560 0 -2560 0 0 -346z m1471 -128 c-7 -8 -8 -16 -4 -18 4 -3 2 -3 -4 -2 -13
3 -18 -15 -13 -46 1 -10 -3 -9 -13 5 -14 18 -14 22 0 38 9 9 12 17 7 18 -5 0
0 4 11 9 28 12 29 12 16 -4z m-246 -16 c3 -5 1 -10 -4 -10 -6 0 -11 5 -11 10
0 6 2 10 4 10 3 0 8 -4 11 -10z m189 -15 c-4 -8 -10 -15 -15 -15 -5 0 -9 7 -9
15 0 8 7 15 15 15 9 0 12 -6 9 -15z m-254 -25 c0 -5 -2 -10 -4 -10 -3 0 -8 5
-11 10 -3 6 -1 10 4 10 6 0 11 -4 11 -10z m350 -10 c0 -4 -10 -10 -22 -14 -20
-5 -21 -7 -7 -18 24 -19 29 -44 15 -64 -11 -15 -13 -13 -11 14 1 21 -3 32 -12
32 -16 0 -16 9 -1 42 11 23 38 29 38 8z m61 -28 c8 2 15 -7 17 -19 3 -20 -1
-23 -27 -23 -27 0 -29 3 -27 28 5 38 5 39 15 24 4 -7 14 -12 22 -10z m-121 -2
c0 -5 -4 -10 -10 -10 -5 0 -10 5 -10 10 0 6 5 10 10 10 6 0 10 -4 10 -10z
m170 -14 c0 -3 -4 -8 -10 -11 -5 -3 -10 -1 -10 4 0 6 5 11 10 11 6 0 10 -2 10
-4z m-293 -32 c-3 -3 -12 -4 -19 -1 -8 3 -5 6 6 6 11 1 17 -2 13 -5z m103 -64
c-8 -5 -19 -10 -25 -10 -5 1 -2 5 8 11 9 6 14 16 11 22 -5 8 -2 7 7 -1 12 -11
12 -14 -1 -22z m352 8 c-12 -12 -35 -1 -27 12 3 5 13 6 21 3 10 -4 12 -9 6
-15z m238 -28 c10 0 28 -9 41 -20 l24 -20 -30 6 c-16 4 -38 11 -47 15 -9 5
-38 9 -63 9 -33 0 -45 4 -42 13 2 7 17 11 39 9 22 -2 39 2 44 10 7 10 9 9 12
-4 2 -10 12 -18 22 -18z m-175 2 c-3 -3 -11 0 -18 7 -9 10 -8 11 6 5 10 -3 15
-9 12 -12z m-395 -2 c0 -5 -4 -10 -10 -10 -5 0 -10 5 -10 10 0 6 5 10 10 10 6
0 10 -4 10 -10z m34 -22 c-5 -7 -1 -9 9 -5 9 3 19 1 23 -4 3 -6 17 -9 30 -6
26 5 32 -11 12 -31 -9 -9 -7 -12 13 -13 22 0 22 -1 4 -8 -11 -5 -22 -7 -25 -5
-3 1 -7 -7 -7 -19 -2 -15 0 -18 6 -8 6 9 11 10 15 2 4 -6 1 -12 -6 -12 -7 -1
-20 -2 -28 -3 -10 -1 -14 -9 -12 -23 2 -13 -2 -23 -8 -23 -6 0 -8 5 -5 10 4 7
-5 9 -27 6 -18 -3 -28 -3 -21 0 7 3 9 13 6 22 -4 13 -3 14 5 3 8 -11 14 -10
33 8 26 24 18 41 -11 23 -11 -7 -20 -8 -20 -3 0 6 4 12 9 16 6 3 7 15 4 28
-16 68 -16 70 -4 63 6 -4 8 -12 5 -18z m427 -8 c13 -10 19 -19 13 -20 -7 0
-22 9 -35 20 -13 10 -19 19 -13 20 7 0 22 -9 35 -20z m-551 -16 c0 -5 -12 -12
-25 -16 -14 -3 -23 -2 -19 3 3 5 -7 9 -21 9 -16 0 -24 4 -20 10 8 13 85 7 85
-6z m114 -29 c-4 -8 -10 -12 -15 -9 -11 6 -2 24 11 24 5 0 7 -7 4 -15z m611
-5 c8 -14 -52 -17 -70 -4 -15 11 -11 13 24 12 23 0 43 -4 46 -8z m215 0 c0 -5
-4 -10 -10 -10 -5 0 -10 5 -10 10 0 6 5 10 10 10 6 0 10 -4 10 -10z m20 -55
c-7 -8 -18 -15 -24 -15 -6 0 -2 7 8 15 25 19 32 19 16 0z m77 -7 c-3 -8 -6 -5
-6 6 -1 11 2 17 5 13 3 -3 4 -12 1 -19z m-617 -53 c4 2 5 -7 2 -20 -5 -29 -27
-32 -60 -7 -21 16 -21 19 -7 40 16 22 16 22 37 2 12 -11 24 -17 28 -15z m266
20 c9 -8 12 -19 9 -25 -3 -5 -1 -10 5 -10 6 0 8 -5 4 -11 -3 -6 -15 -9 -25 -6
-27 7 -24 0 9 -18 23 -14 24 -16 5 -12 -13 3 -23 1 -23 -4 0 -5 -10 -9 -22 -9
-12 0 -18 3 -15 6 4 4 -3 15 -14 25 -13 11 -16 20 -9 24 6 4 9 13 6 21 -4 10
3 14 25 14 18 0 28 4 24 10 -9 15 4 12 21 -5z m-101 -26 c-4 -5 -13 -9 -21 -9
-12 0 -12 2 -2 14 14 15 32 11 23 -5z m-5 -34 c0 -8 -4 -15 -10 -15 -5 0 -7 7
-4 15 4 8 8 15 10 15 2 0 4 -7 4 -15z m10 -77 c0 -5 -7 -8 -15 -8 -10 0 -15
10 -15 27 0 26 1 26 15 7 8 -10 15 -22 15 -26z m216 -43 c-3 -20 -16 -31 -16
-13 0 13 8 28 16 28 1 0 1 -7 0 -15z m-76 -19 c0 -15 3 -17 12 -8 17 17 26 15
24 -5 -1 -14 5 -17 27 -15 15 1 27 -2 27 -8 0 -5 -9 -10 -20 -10 -11 0 -23 -7
-27 -16 -3 -8 -15 -14 -27 -13 -27 3 -66 -10 -66 -22 0 -5 -7 -9 -15 -9 -8 0
-15 7 -15 15 0 8 3 14 8 14 18 -3 32 2 32 11 0 6 -17 3 -39 -6 -21 -8 -44 -14
-52 -12 -8 2 -13 -3 -11 -10 1 -8 -1 -12 -5 -9 -5 2 -17 7 -28 12 -19 7 -19 8
5 15 23 7 22 8 -9 9 -33 1 -34 2 -15 16 10 8 43 22 72 31 30 9 52 21 52 29 0
10 11 14 35 13 28 -1 35 -5 35 -22z m113 -73 c-7 -2 -19 -2 -25 0 -7 3 -2 5
12 5 14 0 19 -2 13 -5z m-666 -9 c-3 -3 -12 -4 -19 -1 -8 3 -5 6 6 6 11 1 17
-2 13 -5z m629 -9 c8 -8 22 -11 32 -8 13 5 14 3 6 -6 -9 -10 -17 -10 -34 -1
-19 10 -24 10 -32 -4 -7 -13 -18 -16 -46 -11 -60 9 -59 21 2 29 21 3 41 7 44
10 8 9 12 7 28 -9z m203 -51 c12 -14 20 -28 17 -32 -3 -3 -1 -11 5 -19 6 -7 9
-14 5 -14 -10 -2 -20 -6 -38 -12 -40 -15 -47 -15 -65 5 -12 15 -13 19 -3 14 9
-4 8 -2 -2 7 -22 18 -23 27 -2 27 9 0 14 8 13 18 -2 29 0 32 24 32 13 0 34
-12 46 -26z m-219 -4 c0 -5 -5 -10 -11 -10 -5 0 -7 5 -4 10 3 6 8 10 11 10 2
0 4 -4 4 -10z m74 -6 c5 -14 4 -15 -9 -4 -17 14 -19 20 -6 20 5 0 12 -7 15
-16z m2236 -39 c0 -8 -4 -15 -10 -15 -5 0 -7 7 -4 15 4 8 8 15 10 15 2 0 4 -7
4 -15z m-2611 -13 c-7 -3 -18 -11 -22 -18 -11 -19 -47 -38 -47 -24 0 5 7 10
15 10 10 0 15 7 13 18 -2 9 3 16 10 15 6 -2 12 1 12 7 0 5 8 6 17 3 14 -5 14
-8 2 -11z m81 8 c0 -5 -5 -10 -11 -10 -6 0 -4 -7 5 -15 19 -19 36 -19 36 0 0
21 34 37 48 23 9 -9 12 -9 12 1 0 11 3 11 15 1 12 -10 15 -10 15 0 0 23 13 1
16 -25 2 -19 -4 -29 -21 -37 -20 -9 -23 -16 -18 -36 4 -18 2 -23 -8 -20 -8 3
-13 11 -11 18 1 6 -6 14 -17 17 -11 3 -21 12 -23 20 -2 12 -8 11 -29 -6 -23
-18 -28 -19 -39 -6 -9 11 -9 15 -1 15 8 0 8 5 -1 19 -14 23 -30 18 -21 -7 7
-18 5 -17 -17 12 -10 13 -10 17 -2 12 6 -4 12 -3 12 2 0 5 10 14 23 20 29 14
37 14 37 2z m176 -9 c-4 -5 0 -11 6 -14 7 -2 10 -8 6 -12 -4 -4 -11 -4 -17 0
-14 8 -14 35 0 35 5 0 8 -4 5 -9z m434 -1 c-8 -5 -19 -10 -25 -10 -5 0 -3 5 5
10 8 5 20 10 25 10 6 0 3 -5 -5 -10z m-370 -30 c0 -5 -4 -10 -10 -10 -5 0 -10
5 -10 10 0 6 5 10 10 10 6 0 10 -4 10 -10z m-50 -20 c0 -5 -7 -10 -15 -10 -8
0 -15 5 -15 10 0 6 7 10 15 10 8 0 15 -4 15 -10z m402 -12 c-7 -7 -12 -8 -12
-2 0 14 12 26 19 19 2 -3 -1 -11 -7 -17z m-902 8 c0 -2 -7 -7 -16 -10 -8 -3
-12 -2 -9 4 6 10 25 14 25 6z m593 -77 c5 -4 4 -10 -2 -13 -6 -4 -11 -2 -11 3
0 6 -7 11 -16 11 -8 0 -12 -4 -9 -10 3 -5 2 -10 -4 -10 -5 0 -13 5 -16 10 -3
6 -1 10 5 10 7 0 10 5 8 11 -2 6 -7 10 -11 9 -12 -1 -40 30 -33 38 4 3 11 0
15 -7 7 -11 11 -10 22 2 12 12 16 10 28 -17 9 -17 19 -34 24 -37z m1943 27 c2
-16 2 -27 0 -25 -31 46 -35 57 -19 55 9 -2 17 -14 19 -30z m-2472 8 c3 -8 2
-12 -4 -9 -6 3 -10 10 -10 16 0 14 7 11 14 -7z m397 6 c5 0 9 -5 9 -11 0 -15
-43 -7 -48 10 -3 10 0 12 12 8 10 -4 22 -7 27 -7z m329 0 c0 -5 -4 -10 -10
-10 -5 0 -10 5 -10 10 0 6 5 10 10 10 6 0 10 -4 10 -10z m-490 -4 c0 -3 -4 -8
-10 -11 -5 -3 -10 -1 -10 4 0 6 5 11 10 11 6 0 10 -2 10 -4z m-135 -16 c-3 -5
-10 -10 -16 -10 -5 0 -9 5 -9 10 0 6 7 10 16 10 8 0 12 -4 9 -10z m-146 -26
c6 -14 9 -30 6 -35 -12 -19 -23 -8 -27 26 -5 41 4 45 21 9z m101 16 c0 -5 -4
-10 -10 -10 -5 0 -10 5 -10 10 0 6 5 10 10 10 6 0 10 -4 10 -10z m505 0 c3 -5
1 -10 -4 -10 -6 0 -11 5 -11 10 0 6 2 10 4 10 3 0 8 -4 11 -10z m-320 -20 c3
-5 1 -10 -4 -10 -6 0 -11 5 -11 10 0 6 2 10 4 10 3 0 8 -4 11 -10z m200 -12
c-6 -14 -55 -21 -55 -8 0 5 10 11 23 13 12 2 25 5 29 6 4 0 5 -5 3 -11z m-415
-23 c0 -8 -7 -15 -15 -15 -26 0 -18 20 13 29 1 1 2 -6 2 -14z m74 -8 c4 -29
27 -47 52 -41 24 6 34 -9 14 -21 -5 -3 -10 -12 -10 -18 1 -7 9 -2 19 10 17 21
22 22 45 9 14 -7 23 -16 19 -19 -3 -4 1 -7 10 -7 10 0 26 -9 36 -19 19 -19 19
-19 0 -24 -11 -3 -19 0 -19 6 0 11 -18 12 -80 7 -9 0 -3 -7 14 -16 24 -13 30
-14 37 -2 7 11 11 10 19 -2 14 -21 13 -24 -15 -37 -14 -6 -25 -7 -25 -2 0 5
-7 9 -15 9 -8 0 -15 -3 -15 -6 0 -12 34 -33 53 -34 9 0 17 -3 17 -7 0 -5 25
-9 55 -11 30 -1 64 -7 77 -12 22 -9 21 -10 -7 -9 -55 2 -73 -1 -87 -13 -14
-14 -37 -16 -54 -6 -6 4 -23 1 -38 -7 -15 -8 -32 -14 -38 -12 -6 1 -13 -4 -15
-10 -3 -9 6 -13 26 -13 29 0 31 -2 25 -27 -15 -64 -42 -90 -75 -73 -19 11 -20
14 -6 27 15 16 42 9 32 -8 -4 -5 -1 -9 4 -9 6 0 11 6 11 14 0 8 6 16 13 19 18
6 3 18 -27 21 -14 1 -29 6 -33 9 -3 4 -17 7 -29 7 -13 0 -25 4 -29 10 -3 5
-11 7 -18 4 -7 -2 -13 4 -14 16 -1 15 4 20 25 20 19 0 23 3 13 9 -11 7 -9 10
8 16 11 3 21 13 21 21 0 11 -6 13 -21 9 -14 -5 -19 -3 -15 3 4 6 -3 11 -16 11
-13 0 -33 1 -45 1 -16 0 -22 6 -21 23 2 47 -2 68 -12 62 -6 -4 -8 -15 -5 -26
5 -15 1 -19 -14 -19 -12 0 -21 5 -21 10 0 6 -12 10 -27 11 -28 0 -28 1 -5 11
33 16 27 23 -20 22 -28 -1 -32 0 -13 3 31 5 55 19 55 34 0 5 -7 5 -17 2 -11
-4 -14 -3 -9 5 4 7 19 12 34 12 21 0 24 -2 12 -10 -12 -8 -9 -10 11 -10 15 0
33 8 40 17 12 14 12 16 -2 11 -9 -3 -22 -2 -30 3 -11 7 -9 9 9 9 12 0 23 -1
25 -2 1 -2 13 5 27 15 13 9 34 17 45 17 17 0 18 -2 5 -11 -13 -9 -13 -10 0 -6
8 2 16 14 18 26 4 24 12 23 16 -2z m516 5 c0 -12 -3 -12 -15 -2 -8 7 -15 13
-15 15 0 1 7 2 15 2 8 0 15 -7 15 -15z m1917 -4 c-3 -8 -6 -5 -6 6 -1 11 2 17
5 13 3 -3 4 -12 1 -19z m-2002 2 c3 -5 1 -10 -5 -10 -6 0 -8 -5 -4 -12 5 -9 3
-9 -9 1 -9 7 -14 17 -11 22 7 12 21 11 29 -1z m-600 -21 c12 -18 -3 -22 -20
-5 -14 14 -14 16 -1 16 8 0 18 -5 21 -11z m45 1 c0 -5 -4 -10 -10 -10 -5 0
-10 5 -10 10 0 6 5 10 10 10 6 0 10 -4 10 -10z m185 0 c3 -5 1 -10 -4 -10 -6
0 -11 5 -11 10 0 6 2 10 4 10 3 0 8 -4 11 -10z m405 -20 c0 -5 -7 -10 -15 -10
-8 0 -15 5 -15 10 0 6 7 10 15 10 8 0 15 -4 15 -10z m30 -15 c0 -7 6 -16 13
-18 6 -3 -2 -4 -19 -4 -28 2 -30 4 -21 24 10 23 27 22 27 -2z m-740 -25 c0 -5
-2 -10 -4 -10 -3 0 -8 5 -11 10 -3 6 -1 10 4 10 6 0 11 -4 11 -10z m880 -30
c0 -5 -2 -10 -4 -10 -3 0 -8 5 -11 10 -3 6 -1 10 4 10 6 0 11 -4 11 -10z
m-380 -10 c0 -5 -2 -10 -4 -10 -3 0 -8 5 -11 10 -3 6 -1 10 4 10 6 0 11 -4 11
-10z m434 -15 c22 -22 23 -25 6 -30 -10 -3 -20 -15 -23 -25 -5 -20 -37 -29
-37 -10 0 6 6 10 14 10 8 0 16 13 18 30 3 17 1 30 -4 30 -4 0 -8 5 -8 10 0 15
7 12 34 -15z m-46 -12 c2 -8 -6 -13 -22 -13 -19 0 -24 4 -19 15 6 18 34 16 41
-2z m-791 -49 c-3 -3 -12 -4 -19 -1 -8 3 -5 6 6 6 11 1 17 -2 13 -5z m63 -34
c0 -5 -4 -10 -10 -10 -5 0 -10 5 -10 10 0 6 5 10 10 10 6 0 10 -4 10 -10z
m785 0 c3 -5 1 -10 -4 -10 -6 0 -11 5 -11 10 0 6 2 10 4 10 3 0 8 -4 11 -10z
m85 -30 c0 -5 -2 -10 -4 -10 -3 0 -8 5 -11 10 -3 6 -1 10 4 10 6 0 11 -4 11
-10z m-70 -10 c0 -5 -4 -10 -10 -10 -5 0 -10 5 -10 10 0 6 5 10 10 10 6 0 10
-4 10 -10z m-806 -26 c9 -22 8 -24 -10 -24 -9 0 -12 5 -8 12 5 8 2 9 -9 5 -9
-3 -19 -2 -22 3 -4 7 8 14 36 19 4 0 10 -6 13 -15z m236 -4 c0 -5 -4 -10 -9
-10 -6 0 -13 5 -16 10 -3 6 1 10 9 10 9 0 16 -4 16 -10z m-1350 -20 c0 -5 -5
-10 -11 -10 -5 0 -7 5 -4 10 3 6 8 10 11 10 2 0 4 -4 4 -10z m1870 -20 c0 -5
-2 -10 -4 -10 -3 0 -8 5 -11 10 -3 6 -1 10 4 10 6 0 11 -4 11 -10z m462 -29
c38 -21 65 -41 61 -44 -3 -4 -11 -3 -17 2 -6 4 -44 21 -85 37 -56 21 -69 30
-55 35 27 11 22 12 96 -30z m-912 19 c0 -5 -5 -10 -11 -10 -5 0 -7 5 -4 10 3
6 8 10 11 10 2 0 4 -4 4 -10z m468 -40 c3 -21 2 -22 -12 -11 -19 16 -21 44 -3
39 6 -3 14 -15 15 -28z m-723 10 c3 -5 -1 -10 -10 -10 -9 0 -13 5 -10 10 3 6
8 10 10 10 2 0 7 -4 10 -10z m50 0 c-3 -5 -13 -10 -21 -10 -8 0 -14 5 -14 10
0 6 9 10 21 10 11 0 17 -4 14 -10z m525 0 c-8 -5 -19 -10 -25 -10 -5 0 -3 5 5
10 8 5 20 10 25 10 6 0 3 -5 -5 -10z m760 0 c0 -5 -5 -10 -11 -10 -5 0 -7 5
-4 10 3 6 8 10 11 10 2 0 4 -4 4 -10z m-266 -15 c21 -9 34 -20 30 -26 -4 -7
-9 -8 -13 -1 -3 5 -22 17 -41 25 -19 9 -30 16 -24 16 6 1 28 -6 48 -14z
m-1064 -19 c0 -3 -4 -8 -10 -11 -5 -3 -10 -1 -10 4 0 6 5 11 10 11 6 0 10 -2
10 -4z m745 -16 c0 -10 -10 -15 -27 -15 -14 0 -30 -3 -34 -7 -4 -5 -1 -8 8 -8
8 0 15 -7 15 -15 0 -21 -14 -19 -26 3 -7 13 -6 23 1 30 7 7 8 12 3 12 -6 0 -4
4 3 9 21 13 57 8 57 -9z m420 0 c-3 -5 -10 -10 -16 -10 -5 0 -9 5 -9 10 0 6 7
10 16 10 8 0 12 -4 9 -10z m35 0 c0 -5 -5 -10 -11 -10 -5 0 -7 5 -4 10 3 6 8
10 11 10 2 0 4 -4 4 -10z m-500 -82 c0 -6 -6 -5 -15 2 -8 7 -15 14 -15 16 0 2
7 1 15 -2 8 -4 15 -11 15 -16z m430 7 c10 -12 9 -16 -4 -21 -24 -9 -20 -26 6
-22 26 4 35 -17 11 -26 -11 -5 -22 -1 -30 10 -8 11 -20 15 -34 11 -20 -5 -49
12 -49 29 0 5 5 3 12 -4 7 -7 23 -12 36 -12 21 0 23 2 11 16 -10 13 -10 17 2
25 19 12 25 11 39 -6z m-2145 -5 c9 -15 -13 -40 -35 -40 -10 0 -30 7 -46 15
l-28 14 25 10 c32 13 76 13 84 1z m1923 -2 c20 -20 14 -38 -13 -38 -26 0 -29
7 -19 34 7 19 16 20 32 4z m-1834 -30 c-3 -4 -11 -5 -19 -2 -11 5 -12 9 -2 19
12 13 31 -1 21 -17z m-54 5 c0 -12 -33 -43 -46 -43 -7 0 -16 4 -19 10 -3 5 0
7 9 4 9 -3 20 3 28 15 12 20 28 28 28 14z m-145 -40 c19 -9 35 -19 35 -23 0
-8 -101 3 -117 13 -45 28 26 37 82 10z m-243 -5 c-9 -9 -15 -9 -24 0 -9 9 -7
12 12 12 19 0 21 -3 12 -12z m405 6 c-3 -3 -12 -4 -19 -1 -8 3 -5 6 6 6 11 1
17 -2 13 -5z m2060 -6 c0 -7 -11 -13 -24 -13 -21 0 -22 1 -6 13 9 6 20 12 23
12 4 0 7 -6 7 -12z m-2402 -22 c-11 -8 -23 -12 -28 -9 -13 8 3 23 26 23 20 0
20 0 2 -14z m350 5 c-8 -15 -62 -23 -87 -14 -19 6 -12 9 32 14 30 3 56 6 58 7
2 1 1 -2 -3 -7z m137 -5 c4 -6 -1 -16 -10 -23 -20 -15 -36 -17 -27 -3 3 6 2
10 -4 10 -5 0 -11 -4 -13 -9 -3 -10 -118 -21 -118 -11 0 6 58 30 100 41 33 9
63 6 72 -5z m-302 -16 c0 -5 -6 -10 -14 -10 -8 0 -18 5 -21 10 -3 6 3 10 14
10 12 0 21 -4 21 -10z m1000 0 c0 -5 -2 -10 -4 -10 -2 0 -12 -3 -22 -7 -16 -6
-17 -5 -4 10 17 19 30 22 30 7z m40 -10 c0 -5 -5 -10 -11 -10 -5 0 -7 5 -4 10
3 6 8 10 11 10 2 0 4 -4 4 -10z m-660 -10 c0 -5 -2 -10 -4 -10 -3 0 -8 5 -11
10 -3 6 -1 10 4 10 6 0 11 -4 11 -10z m565 0 c-3 -5 -12 -10 -18 -10 -7 0 -6
4 3 10 19 12 23 12 15 0z m1345 -24 c7 -19 14 -23 32 -19 22 4 22 4 4 -11 -10
-8 -23 -17 -29 -19 -6 -2 -7 -9 -3 -16 6 -9 11 -9 22 0 8 6 14 8 14 4 0 -4 7
-2 16 6 14 11 15 10 12 -7 -2 -14 4 -20 22 -22 14 -2 30 -8 35 -13 6 -7 -1 -8
-22 -5 -37 7 -51 -7 -31 -31 12 -15 11 -15 -12 -3 -14 8 -31 13 -38 11 -8 -1
-20 3 -28 10 -8 7 -30 12 -49 11 -23 -1 -38 4 -44 16 -6 10 -11 12 -11 5 0 -7
-5 -13 -11 -13 -6 0 -9 7 -5 15 3 9 0 15 -10 15 -8 0 -12 -4 -9 -10 9 -15 -4
-12 -20 3 -7 8 -10 18 -7 23 10 14 74 43 111 50 17 4 28 10 25 15 -3 5 2 9 11
9 8 0 20 -11 25 -24z m-1820 -16 c0 -5 -4 -10 -10 -10 -5 0 -10 5 -10 10 0 6
5 10 10 10 6 0 10 -4 10 -10z m-187 -7 c-21 -7 -15 -20 11 -25 14 -3 31 1 40
10 9 9 19 13 23 9 11 -12 -13 -29 -48 -33 -19 -2 -36 1 -41 8 -5 10 -11 9 -25
-4 -16 -17 -15 -18 34 -18 28 0 58 -3 67 -6 11 -4 16 -1 16 10 0 11 8 16 28
15 16 -1 20 -3 10 -6 -10 -2 -18 -8 -18 -13 0 -5 8 -11 18 -13 9 -3 -12 -5
-48 -5 -79 1 -222 14 -167 16 38 2 53 22 16 22 -28 0 -19 24 10 28 15 2 21 0
17 -7 -4 -6 -2 -11 3 -11 6 0 11 6 11 14 0 8 11 13 28 13 15 0 21 -2 15 -4z
m537 -13 c0 -5 -7 -10 -16 -10 -8 0 -12 5 -9 10 3 6 10 10 16 10 5 0 9 -4 9
-10z m-705 -10 c3 -5 1 -10 -4 -10 -6 0 -11 5 -11 10 0 6 2 10 4 10 3 0 8 -4
11 -10z m1095 -4 c0 -3 -4 -8 -10 -11 -5 -3 -10 -1 -10 4 0 6 5 11 10 11 6 0
10 -2 10 -4z m43 -23 c-24 -8 -26 -8 -29 9 -2 15 1 16 19 6 13 -7 17 -13 10
-15z m-756 5 c-2 -7 -14 -12 -25 -11 -15 2 -20 -2 -16 -12 4 -9 0 -15 -8 -15
-24 0 -29 12 -11 32 18 21 67 25 60 6z m318 -20 c-19 -11 -30 -5 -21 11 4 6
14 7 22 4 15 -5 14 -7 -1 -15z m-244 -22 c14 -29 -3 -66 -29 -66 -18 0 -80 56
-71 64 7 6 63 24 77 25 7 1 17 -10 23 -23z m559 15 c0 -5 -12 -12 -27 -17 -38
-11 -43 -11 -43 1 -1 6 14 13 32 16 18 4 34 7 36 8 1 0 2 -3 2 -8z m-1237 -18
c-3 -8 -2 -13 3 -12 21 5 83 -14 81 -25 -1 -6 4 -10 11 -8 12 2 16 -9 13 -39
-1 -10 4 -17 11 -16 7 0 24 -1 38 -2 22 -1 23 -3 7 -12 -9 -5 -22 -7 -29 -3
-7 4 -8 3 -4 -4 5 -8 -3 -12 -26 -12 -23 0 -38 8 -53 26 -17 21 -25 25 -39 17
-16 -9 -16 -11 -1 -23 13 -11 15 -10 9 5 -5 12 -3 16 6 13 21 -7 23 -25 3 -32
-12 -5 -23 -1 -33 11 -8 11 -23 22 -32 26 -19 7 -25 37 -7 37 5 0 8 -4 4 -9
-8 -14 32 -24 52 -12 16 9 14 10 -9 11 -34 0 -36 13 -5 28 16 8 18 11 6 11 -9
1 -19 8 -23 16 -3 9 -12 12 -23 9 -14 -5 -15 -4 -4 4 21 15 50 11 44 -5z m47
7 c0 -5 -2 -10 -4 -10 -3 0 -8 5 -11 10 -3 6 -1 10 4 10 6 0 11 -4 11 -10z
m1093 -15 c20 8 34 -15 16 -26 -12 -7 -12 -9 1 -9 9 0 10 -3 5 -9 -8 -8 -235
-71 -257 -71 -20 0 11 45 52 75 51 38 66 42 73 23 3 -9 14 -4 32 15 26 25 30
26 45 12 9 -9 24 -13 33 -10z m127 0 c-7 -8 -17 -15 -23 -15 -6 0 -2 7 9 15
25 19 30 19 14 0z m40 11 c0 -3 -4 -8 -10 -11 -5 -3 -10 -1 -10 4 0 6 5 11 10
11 6 0 10 -2 10 -4z m1340 -16 c29 -29 13 -64 -29 -66 -32 -1 -57 18 -46 36 3
5 -2 10 -11 10 -16 0 -16 2 2 19 25 26 59 26 84 1z m-2406 -5 c3 -9 0 -15 -9
-15 -9 0 -12 6 -9 15 4 8 7 15 9 15 2 0 5 -7 9 -15z m2274 -20 c-3 -3 -9 2
-12 12 -6 14 -5 15 5 6 7 -7 10 -15 7 -18z m-2122 0 c117 -30 257 -138 269
-207 6 -34 5 -38 -14 -38 -11 0 -36 14 -55 30 -21 19 -60 38 -100 49 -39 11
-94 37 -136 65 -75 50 -90 66 -66 66 21 0 20 27 -1 39 -28 16 35 14 103 -4z
m1854 -7 c0 -9 3 -9 9 1 8 12 16 13 51 2 23 -7 39 -15 36 -18 -12 -12 30 -31
55 -26 21 4 28 1 34 -16 5 -17 12 -20 28 -16 17 5 19 4 7 -4 -22 -15 -40 -13
-40 4 0 8 -4 15 -10 15 -5 0 -7 -7 -3 -16 6 -15 4 -15 -19 0 -13 9 -28 13 -31
9 -4 -3 -7 -1 -7 5 0 7 -8 12 -17 12 -14 0 -15 -2 -4 -9 7 -5 11 -13 7 -19 -9
-15 7 -22 47 -24 30 -1 34 -5 33 -25 -1 -28 -12 -30 -21 -3 -6 20 -25 28 -25
10 0 -6 -9 -6 -26 0 -14 6 -41 10 -59 10 -26 0 -33 3 -29 15 5 12 -2 15 -29
15 -24 0 -40 6 -46 18 -9 15 -10 14 -11 -8 -1 -22 -2 -23 -11 -7 -5 9 -7 22
-3 28 4 7 0 9 -13 5 -13 -4 -20 -2 -20 8 0 8 9 17 19 19 10 3 16 1 12 -4 -3
-5 5 -9 18 -10 13 0 34 -2 48 -4 14 -2 19 -1 13 1 -7 3 -13 12 -13 20 0 11 -4
12 -19 5 -18 -10 -31 -6 -31 11 0 4 16 8 35 8 21 0 35 -5 35 -12z m-1968 -10
c-9 -9 -15 -9 -24 0 -9 9 -7 12 12 12 19 0 21 -3 12 -12z m2098 -8 c0 -5 -5
-10 -11 -10 -5 0 -7 5 -4 10 3 6 8 10 11 10 2 0 4 -4 4 -10z m40 0 c0 -5 -4
-10 -10 -10 -5 0 -10 5 -10 10 0 6 5 10 10 10 6 0 10 -4 10 -10z m-1165 -20
c39 -16 -62 -48 -171 -54 -55 -3 -119 -9 -144 -12 -73 -8 -25 12 60 26 41 7
91 19 109 26 19 8 41 12 48 10 7 -3 15 -1 18 4 7 12 52 12 80 0z m863 -15 c-3
-3 -9 2 -12 12 -6 14 -5 15 5 6 7 -7 10 -15 7 -18z m-80 -10 c-3 -3 -9 2 -12
12 -6 14 -5 15 5 6 7 -7 10 -15 7 -18z m976 -6 c-3 -5 -10 -7 -15 -3 -5 3 -7
10 -3 15 3 5 10 7 15 3 5 -3 7 -10 3 -15z m-3023 -20 c13 -21 0 -25 -15 -4 -7
10 -18 15 -24 11 -6 -3 -13 -2 -16 3 -4 5 6 8 20 6 14 -1 30 -9 35 -16z m2839
0 c0 -4 -7 -6 -15 -3 -8 4 -15 10 -15 15 0 4 7 6 15 3 8 -4 15 -10 15 -15z
m-2590 -9 c0 -12 -43 -6 -47 6 -2 7 6 10 22 7 14 -3 25 -9 25 -13z m2460 -6
c0 -8 -4 -14 -10 -14 -5 0 -10 5 -10 10 0 6 -7 10 -16 10 -8 0 -13 4 -10 9 9
13 46 1 46 -15z m-2540 6 c-8 -5 -19 -10 -25 -10 -5 0 -3 5 5 10 8 5 20 10 25
10 6 0 3 -5 -5 -10z m2085 0 c3 -5 1 -10 -4 -10 -6 0 -11 5 -11 10 0 6 2 10 4
10 3 0 8 -4 11 -10z m237 -2 c-9 -9 -5 -16 18 -30 19 -11 30 -26 30 -40 -1
-21 -2 -22 -14 -5 -11 14 -15 15 -24 4 -14 -17 3 -38 24 -30 13 5 18 -7 15
-34 -1 -6 8 -14 19 -18 32 -10 23 -25 -14 -22 -23 1 -32 6 -28 15 3 10 -3 11
-24 7 l-29 -7 30 17 c41 22 45 29 13 21 -24 -5 -28 -3 -28 14 0 12 -6 20 -12
19 -29 -4 -49 2 -43 12 4 6 19 7 36 4 17 -4 29 -2 29 3 0 6 3 18 7 28 4 11 3
15 -5 10 -16 -10 -25 13 -12 29 7 8 15 15 18 15 3 0 1 -5 -6 -12z m481 5 c-7
-2 -19 -2 -25 0 -7 3 -2 5 12 5 14 0 19 -2 13 -5z m47 3 c0 -3 -4 -8 -10 -11
-5 -3 -10 -1 -10 4 0 6 5 11 10 11 6 0 10 -2 10 -4z m-965 -15 c3 -5 1 -12 -5
-16 -5 -3 -10 1 -10 9 0 18 6 21 15 7z m-1775 -30 c5 -11 20 -23 32 -26 28
-10 89 -65 82 -76 -3 -5 -16 -9 -30 -9 -14 0 -23 -4 -20 -8 3 -5 19 -7 36 -4
31 4 42 -11 14 -22 -8 -3 -12 -11 -9 -17 4 -6 13 -8 20 -5 7 2 16 -5 19 -17 6
-20 7 -21 17 -4 5 9 16 17 22 17 7 0 18 5 25 12 9 9 8 16 -5 30 -15 17 -14 18
13 18 41 0 128 -45 160 -83 18 -21 24 -38 21 -56 -3 -14 2 -38 11 -53 14 -24
14 -29 -1 -52 -12 -17 -13 -27 -6 -32 7 -4 9 -21 6 -40 -3 -19 -2 -36 3 -39 7
-4 3 -83 -5 -93 -1 -1 -30 12 -65 30 -59 31 -71 33 -160 33 -72 0 -102 4 -121
16 -14 9 -34 19 -44 21 -14 3 -19 11 -18 26 3 25 -12 30 -21 7 -3 -8 -10 -15
-16 -15 -7 0 -8 6 0 19 15 28 15 28 -42 20 -29 -3 -56 -5 -60 -2 -5 2 -8 -3
-8 -11 0 -9 -4 -16 -10 -16 -5 0 -10 5 -10 11 0 5 -4 8 -9 5 -5 -3 -14 1 -21
9 -10 13 -9 15 9 15 12 0 20 4 17 9 -4 5 3 7 14 4 14 -4 20 0 20 11 0 11 4 14
12 10 14 -9 13 -9 122 -19 78 -8 79 -8 60 12 -14 14 -26 18 -50 13 -24 -6 -35
-2 -53 16 l-23 24 -41 -23 c-57 -30 -82 -30 -83 -1 -1 15 2 22 10 18 6 -3 -2
5 -18 18 l-29 24 39 19 c31 15 35 20 20 23 -11 2 -25 -3 -31 -12 -13 -17 -30
-23 -20 -6 6 9 -10 14 -42 13 -28 -1 -11 16 20 21 54 8 88 2 103 -18 12 -18
18 -15 15 6 0 4 6 5 14 2 8 -4 15 -11 15 -16 0 -6 7 -8 15 -4 8 3 15 1 15 -4
0 -6 -5 -10 -12 -10 -16 0 -1 -13 20 -16 9 -2 20 2 25 9 7 9 10 9 14 0 2 -7
11 -13 20 -13 8 0 22 -7 30 -16 14 -13 14 -17 2 -25 -10 -6 -11 -9 -1 -9 7 0
17 12 22 26 6 14 14 22 20 19 5 -3 10 -1 10 6 0 7 11 9 34 5 35 -7 56 6 34 20
-7 5 -25 7 -39 6 -17 -2 -29 3 -32 12 -4 9 -17 16 -29 16 -20 -1 -21 -2 -5
-11 9 -5 17 -15 17 -21 0 -7 -7 -5 -17 4 -10 9 -25 18 -33 21 -13 5 -13 6 1 6
20 1 55 39 44 49 -4 4 -10 1 -12 -5 -3 -7 -12 -13 -20 -13 -11 0 -14 6 -10 22
7 25 -10 61 -24 53 -5 -4 -7 -11 -4 -16 4 -5 -1 -9 -10 -9 -13 0 -14 -4 -5
-20 8 -14 8 -20 0 -20 -6 0 -15 11 -20 25 -6 16 -18 25 -32 26 -22 0 -22 1 -3
9 17 7 16 9 -11 9 -44 1 -60 21 -33 42 18 13 19 19 10 37 -8 15 -8 23 1 28 7
4 8 3 4 -4 -7 -12 4 -16 39 -12 20 2 20 2 0 -13 -11 -9 -17 -19 -13 -23 5 -4
16 0 25 8 10 9 25 13 33 10 8 -3 4 4 -10 16 -14 11 -21 24 -16 29 5 4 11 2 13
-4 3 -7 12 -13 20 -13 13 0 13 3 3 15 -8 10 -9 15 -2 15 6 0 16 -9 22 -19z
m1840 -4 c0 -2 -9 -3 -20 -4 -12 -1 -20 4 -20 13 0 12 4 12 20 4 11 -6 20 -12
20 -13z m-855 1 c-2 -7 -7 -30 -10 -51 -5 -35 -3 -39 25 -48 16 -6 30 -15 30
-20 0 -5 5 -9 10 -9 6 0 20 -9 32 -20 13 -12 29 -18 42 -14 17 4 22 0 23 -15
1 -16 -4 -20 -20 -18 -15 1 -22 -3 -22 -16 0 -10 -11 -25 -25 -32 -25 -14 -25
-14 15 -16 68 -3 147 5 166 16 5 4 9 -3 9 -14 0 -22 -20 -30 -20 -8 -1 8 -5 6
-13 -4 -13 -18 -51 -33 -82 -34 -14 0 -21 -8 -23 -27 -2 -20 -9 -27 -25 -26
-12 0 -29 0 -37 -1 -13 -1 -13 -2 0 -11 12 -7 7 -12 -22 -25 -21 -8 -48 -15
-60 -15 -13 0 -50 -12 -83 -25 -33 -14 -87 -30 -120 -37 -33 -7 -72 -20 -87
-30 -36 -25 -41 -23 -36 12 3 18 -1 35 -9 42 -10 8 -10 14 -2 24 9 11 8 18 -1
29 -10 12 -10 18 -1 29 9 11 9 19 0 34 -10 17 -10 23 1 37 11 13 10 18 -5 29
-16 12 -16 13 -1 19 23 9 20 30 -9 61 -24 26 -24 27 -5 46 11 11 20 29 20 40
0 30 41 50 163 81 124 30 189 36 182 17z m145 2 c0 -5 -2 -10 -4 -10 -3 0 -8
5 -11 10 -3 6 -1 10 4 10 6 0 11 -4 11 -10z m1893 -49 c1 -9 6 -22 11 -29 13
-21 -3 -27 -22 -9 -14 14 -14 19 -4 26 11 7 11 9 -2 14 -16 6 -22 38 -9 51 7
7 21 -22 26 -53z m-2966 43 c-3 -3 -12 -4 -19 -1 -8 3 -5 6 6 6 11 1 17 -2 13
-5z m1683 2 c0 -9 -30 -14 -35 -6 -4 6 3 10 14 10 12 0 21 -2 21 -4z m152 -8
c-9 -9 -15 -9 -24 0 -9 9 -7 12 12 12 19 0 21 -3 12 -12z m223 2 c-3 -5 -14
-10 -23 -10 -15 0 -15 2 -2 10 20 13 33 13 25 0z m-2030 -10 c3 -5 1 -10 -4
-10 -6 0 -11 5 -11 10 0 6 2 10 4 10 3 0 8 -4 11 -10z m1725 -25 c16 -19 3
-19 -30 0 -24 13 -24 14 -4 15 12 0 27 -7 34 -15z m89 -6 c-7 -4 -17 -5 -21
-3 -9 6 -11 -20 -2 -29 3 -3 17 -1 31 4 20 7 24 7 20 -5 -4 -10 0 -12 15 -8
14 3 19 1 14 -6 -4 -7 -5 -12 -2 -12 2 0 12 -3 22 -7 13 -5 15 -3 10 8 -4 8 1
4 11 -9 10 -12 32 -26 48 -31 26 -7 27 -10 11 -16 -11 -5 -21 -3 -27 6 -7 11
-9 11 -9 -3 0 -11 -6 -15 -20 -11 -14 4 -20 0 -20 -10 0 -18 16 -30 44 -33 12
-1 47 -9 79 -18 32 -9 67 -16 77 -16 11 0 20 -4 20 -10 0 -5 -9 -10 -19 -10
-11 0 -22 -4 -26 -10 -7 -11 -48 1 -107 31 -28 14 -46 10 -59 -12 -10 -20 -17
-21 -85 -17 -82 6 -93 10 -74 33 16 20 0 19 -29 -1 -22 -16 -23 -16 -12 4 7
14 8 23 1 27 -5 3 -10 0 -11 -7 0 -10 -2 -10 -6 0 -2 6 -14 12 -26 12 -20 1
-20 2 -4 11 9 5 17 17 17 26 0 15 -2 15 -18 0 -10 -10 -25 -17 -33 -16 -10 0
-10 2 -1 6 18 7 15 31 -6 42 -13 7 -22 7 -29 0 -7 -7 -12 -6 -16 5 -4 11 4 16
34 21 21 4 39 10 39 15 0 4 21 13 48 20 56 14 92 28 74 29 -7 1 -11 5 -8 9 3
5 19 7 37 4 21 -3 27 -7 18 -13z m-2044 1 c-3 -5 -10 -10 -16 -10 -5 0 -9 5
-9 10 0 6 7 10 16 10 8 0 12 -4 9 -10z m1913 -16 c-4 -3 -18 -7 -33 -8 -29 -4
-21 10 10 16 22 5 32 1 23 -8z m-73 -23 c-3 -6 -11 -11 -16 -11 -5 0 -4 6 3
14 14 16 24 13 13 -3z m-60 -11 c3 -5 -1 -10 -10 -10 -9 0 -13 5 -10 10 3 6 8
10 10 10 2 0 7 -4 10 -10z m-1825 -14 c0 -3 -4 -8 -10 -11 -5 -3 -10 -1 -10 4
0 6 5 11 10 11 6 0 10 -2 10 -4z m40 -6 c0 -5 -2 -10 -4 -10 -3 0 -8 5 -11 10
-3 6 -1 10 4 10 6 0 11 -4 11 -10z m2495 -20 c-4 -6 8 -10 29 -10 20 0 36 -4
36 -9 0 -11 -79 4 -93 18 -8 8 -5 11 12 11 12 0 19 -4 16 -10z m-2485 -10 c0
-5 -5 -10 -11 -10 -5 0 -7 5 -4 10 3 6 8 10 11 10 2 0 4 -4 4 -10z m-80 -10
c0 -5 -2 -10 -4 -10 -3 0 -8 5 -11 10 -3 6 -1 10 4 10 6 0 11 -4 11 -10z
m2359 -7 c3 -2 -1 -9 -7 -15 -8 -8 -12 -8 -12 -1 0 6 -7 10 -16 9 -9 0 -19 5
-21 12 -4 10 2 11 24 6 15 -4 30 -9 32 -11z m87 7 c7 7 19 8 25 4 9 -5 6 -10
-9 -15 -27 -10 -54 -1 -45 14 5 8 8 7 11 -1 3 -10 7 -10 18 -2z m69 -8 c-3 -3
-11 0 -18 7 -9 10 -8 11 6 5 10 -3 15 -9 12 -12z m-2355 -2 c0 -5 -2 -10 -4
-10 -3 0 -8 5 -11 10 -3 6 -1 10 4 10 6 0 11 -4 11 -10z m-100 -16 c0 -2 -9
-4 -21 -4 -11 0 -18 4 -14 10 5 8 35 3 35 -6z m160 -4 c0 -5 -5 -10 -11 -10
-5 0 -7 5 -4 10 3 6 8 10 11 10 2 0 4 -4 4 -10z m-13 -36 c-3 -3 -12 -4 -19
-1 -8 3 -5 6 6 6 11 1 17 -2 13 -5z m-491 -18 c3 -8 14 -12 27 -9 17 5 20 3
10 -7 -15 -16 -63 -5 -63 15 0 19 19 20 26 1z m17 -63 c-5 -13 -33 -6 -46 11
-6 7 -7 5 -4 -6 3 -9 -3 -24 -14 -34 -18 -16 -19 -16 -13 -1 4 13 1 17 -15 17
-12 0 -21 2 -21 4 0 2 -3 12 -7 22 -5 14 -2 16 21 10 18 -4 28 -2 32 7 4 12
11 11 38 -2 18 -9 31 -21 29 -28z m154 21 c-3 -3 -12 -4 -19 -1 -8 3 -5 6 6 6
11 1 17 -2 13 -5z m2228 -9 c11 -2 24 -4 29 -4 5 -1 3 -7 -3 -15 -9 -10 -26
-13 -59 -10 -26 3 -56 6 -67 6 -19 2 -35 15 -35 30 0 7 67 3 135 -7z m108 -5
c3 -11 1 -20 -4 -20 -5 0 -9 9 -9 20 0 11 2 20 4 20 2 0 6 -9 9 -20z m-2610
-20 c21 -25 21 -30 2 -30 -8 0 -15 5 -15 11 0 5 -4 7 -10 4 -5 -3 -10 0 -10 7
0 8 -3 9 -8 3 -7 -10 -52 -19 -52 -10 0 4 57 32 70 34 3 1 13 -8 23 -19z
m2677 10 c0 -5 -7 -7 -15 -4 -8 4 -15 8 -15 10 0 2 7 4 15 4 8 0 15 -4 15 -10z
m-920 -16 c0 -8 -4 -12 -10 -9 -5 3 -10 10 -10 16 0 5 5 9 10 9 6 0 10 -7 10
-16z m69 -22 c10 2 18 1 19 -2 3 -12 -11 -50 -19 -50 -5 0 -6 7 -3 15 4 8 1
15 -5 15 -10 0 -15 -13 -12 -32 1 -10 -33 -2 -36 9 -2 5 3 16 12 23 8 7 16 24
16 39 2 24 2 24 6 3 3 -15 10 -22 22 -20z m586 -1 c-3 -6 -11 -11 -17 -11 -6
0 -6 6 2 15 14 17 26 13 15 -4z m82 -18 c-13 -14 -18 -14 -39 2 l-23 17 28 -5
c15 -2 27 0 27 5 0 5 5 6 11 2 7 -4 6 -11 -4 -21z m140 -8 c0 -8 -4 -12 -9 -9
-4 3 -8 9 -8 15 0 5 4 9 8 9 5 0 9 -7 9 -15z m1018 5 c-3 -5 -11 -10 -16 -10
-6 0 -7 5 -4 10 3 6 11 10 16 10 6 0 7 -4 4 -10z m-3545 -11 c0 -5 -21 -10
-47 -11 -98 -3 -113 -4 -119 -11 -13 -12 -56 -8 -51 6 2 6 20 12 40 12 21 0
37 3 37 6 0 4 32 7 70 6 39 0 70 -4 70 -8z m1630 -9 c0 -5 -10 -10 -22 -9 -22
0 -22 1 -3 9 11 5 21 9 23 9 1 1 2 -3 2 -9z m670 -5 c-7 -9 -15 -13 -17 -11
-7 7 7 26 19 26 6 0 6 -6 -2 -15z m-416 -37 c7 -5 5 -8 -5 -8 -18 0 -32 24
-21 35 4 3 8 0 11 -7 2 -7 9 -16 15 -20z m1776 22 c0 -20 -31 -71 -39 -65 -10
6 -3 44 12 63 12 15 27 16 27 2z m-3680 -20 c12 -8 12 -10 -5 -11 -16 -1 -15
-2 5 -8 23 -7 22 -8 -14 -14 -38 -6 -65 1 -38 10 6 3 12 11 12 19 0 16 18 18
40 4z m450 0 c0 -5 -4 -10 -10 -10 -5 0 -10 5 -10 10 0 6 5 10 10 10 6 0 10
-4 10 -10z m1940 -6 c0 -2 -12 -4 -26 -4 -14 0 -23 4 -20 9 6 8 46 4 46 -5z
m-524 -20 c-3 -7 -1 -16 5 -19 20 -13 -3 -24 -26 -13 -29 13 -32 26 -8 44 21
14 37 8 29 -12z m1736 -6 c-15 -15 -26 -4 -18 18 5 13 9 15 18 6 9 -9 9 -15 0
-24z m-1142 2 c-20 -13 -30 -12 -30 1 0 5 4 8 9 4 5 -3 13 0 16 6 4 5 10 8 13
4 4 -3 0 -10 -8 -15z m-2090 6 c0 -3 -4 -8 -10 -11 -5 -3 -10 -1 -10 4 0 6 5
11 10 11 6 0 10 -2 10 -4z m140 -16 c0 -4 -7 -13 -15 -20 -9 -8 -15 -8 -15 -2
0 6 -3 17 -6 25 -4 12 0 14 15 10 12 -3 21 -9 21 -13z m1860 4 c0 -8 -5 -12
-10 -9 -6 4 -8 11 -5 16 9 14 15 11 15 -7z m-1912 -6 c17 -17 15 -28 -6 -28
-11 0 -18 7 -18 20 0 23 7 25 24 8z m3233 -13 c5 4 9 1 9 -4 0 -6 -4 -11 -9
-11 -5 0 -11 -9 -14 -20 -6 -24 -47 -28 -47 -5 0 8 9 15 20 15 15 0 20 7 21
28 1 17 3 20 6 9 2 -9 9 -15 14 -12z m-3646 -4 c3 -5 1 -12 -5 -16 -5 -3 -10
1 -10 9 0 18 6 21 15 7z m1974 -17 c-6 -7 -8 -17 -5 -22 3 -5 -11 -8 -32 -7
-68 4 -69 4 -42 25 16 12 29 15 36 9 8 -6 14 -5 17 6 4 8 13 12 22 9 12 -5 13
-10 4 -20z m-214 6 c-3 -5 0 -10 8 -10 8 0 20 -6 27 -14 9 -12 7 -17 -9 -28
-12 -7 -21 -17 -21 -22 0 -9 -22 -29 -54 -47 -14 -9 -17 -8 -14 3 3 7 1 21 -4
31 -7 14 -4 17 14 17 23 1 23 1 3 16 -17 13 -18 16 -5 24 8 6 21 8 28 5 9 -3
11 1 7 15 -5 14 -2 20 10 20 9 0 13 -4 10 -10z m282 4 c-3 -3 -12 -4 -19 -1
-8 3 -5 6 6 6 11 1 17 -2 13 -5z m-27 -24 c0 -5 -7 -10 -16 -10 -8 0 -12 5 -9
10 3 6 10 10 16 10 5 0 9 -4 9 -10z m760 -10 c8 -5 11 -10 5 -10 -5 0 -17 5
-25 10 -8 5 -10 10 -5 10 6 0 17 -5 25 -10z m45 -10 c3 -5 -1 -10 -9 -10 -9 0
-16 5 -16 10 0 6 4 10 9 10 6 0 13 -4 16 -10z m-3054 -28 c-7 -2 -18 1 -23 6
-8 8 -4 9 13 5 13 -4 18 -8 10 -11z m644 -2 c18 -20 17 -20 -14 -20 -20 0 -30
-4 -26 -11 11 -16 -4 -59 -20 -59 -8 0 -15 5 -15 11 0 5 5 7 10 4 12 -8 12 -8
1 33 -10 34 -5 37 42 33 24 -3 21 8 -5 19 -15 6 -17 9 -7 9 9 1 24 -8 34 -19z
m1215 1 c0 -16 -31 -46 -36 -34 -4 8 -12 8 -31 -2 -29 -15 -53 -10 -53 11 0
17 12 18 27 3 8 -8 11 -6 10 7 -1 11 6 20 17 22 12 3 16 0 11 -8 -5 -8 -1 -11
11 -8 11 2 18 9 17 16 -2 6 4 9 12 6 8 -4 15 -9 15 -13z m-1517 -22 c51 -14
47 -26 -10 -31 -64 -6 -75 -2 -60 23 14 22 19 23 70 8z m1547 8 c0 -2 -12 -14
-27 -28 l-26 -24 19 27 c16 23 34 36 34 25z m-1183 -13 c-3 -3 -12 -4 -19 -1
-8 3 -5 6 6 6 11 1 17 -2 13 -5z m-137 -13 c0 -17 -14 -18 -40 -5 l-25 14 33
0 c17 0 32 -4 32 -9z m2460 -1 c0 -5 -10 -10 -22 -10 -19 0 -20 2 -8 10 19 13
30 13 30 0z m-2544 -10 c8 0 11 -6 8 -15 -5 -11 0 -14 17 -13 19 2 23 -1 21
-17 -2 -11 -6 -22 -8 -25 -8 -8 -36 15 -63 50 -21 27 -23 32 -8 27 10 -4 25
-7 33 -7z m174 6 c0 -2 -9 -6 -20 -9 -11 -3 -20 -1 -20 4 0 5 9 9 20 9 11 0
20 -2 20 -4z m3088 -18 c-3 -7 -11 -13 -18 -13 -7 0 -15 6 -17 13 -3 7 4 12
17 12 13 0 20 -5 18 -12z m-3044 -23 c-8 -32 10 -30 43 4 18 19 23 20 23 8 0
-11 5 -14 15 -11 8 4 23 0 32 -7 15 -12 16 -12 10 4 -4 11 -2 17 7 17 8 0 13
-10 12 -24 0 -13 -4 -22 -8 -20 -4 3 -12 -5 -18 -16 -12 -22 -7 -25 19 -11 10
6 28 12 42 14 13 2 31 7 40 11 11 5 37 -3 70 -20 45 -23 50 -29 32 -32 -28 -4
-30 -28 -3 -37 11 -3 20 -11 20 -16 0 -5 9 -9 19 -9 11 0 23 -5 26 -10 5 -7
11 -8 19 -1 6 5 16 7 22 3 13 -9 18 -72 6 -72 -20 0 -61 41 -55 55 8 21 -43
20 -55 -2 -7 -11 -15 -14 -28 -8 -18 8 -17 9 4 12 12 3 20 9 17 14 -4 5 0 9 7
9 9 0 9 3 -2 10 -8 5 -25 7 -36 4 -12 -3 -25 0 -29 6 -5 9 -1 10 14 5 13 -4
21 -2 21 5 0 9 -16 11 -52 7 -51 -5 -52 -4 -23 9 17 7 43 13 58 14 19 0 27 4
24 13 -2 6 -11 11 -21 9 -9 -2 -16 1 -16 6 0 12 -62 7 -89 -7 -12 -7 -18 -17
-15 -26 4 -8 1 -15 -5 -15 -6 0 -11 7 -11 15 0 8 -5 15 -11 15 -6 0 -9 -6 -6
-13 4 -10 -2 -13 -18 -9 -23 4 -23 5 -8 29 16 24 16 25 -8 22 -13 -2 -30 1
-38 5 -10 6 -12 5 -7 -2 4 -7 2 -12 -4 -12 -6 0 -13 6 -16 14 -3 8 -16 13 -30
11 -13 -1 -24 2 -24 6 0 5 5 9 12 9 6 0 8 3 5 7 -4 3 -2 12 4 20 17 19 20 16
13 -12z m846 15 c0 -5 -4 -10 -9 -10 -6 0 -13 5 -16 10 -3 6 1 10 9 10 9 0 16
-4 16 -10z m-45 -10 c3 -5 1 -10 -4 -10 -6 0 -11 5 -11 10 0 6 2 10 4 10 3 0
8 -4 11 -10z m-875 -10 c0 -5 -5 -10 -11 -10 -5 0 -7 5 -4 10 3 6 8 10 11 10
2 0 4 -4 4 -10z m270 0 c13 -9 13 -11 0 -20 -19 -12 -27 -12 -35 0 -3 6 2 10
12 10 15 0 16 2 3 10 -8 5 -10 10 -5 10 6 0 17 -5 25 -10z m1820 -25 c0 -7 7
-15 15 -19 8 -3 15 -11 15 -18 0 -7 -13 1 -27 17 -15 17 -30 29 -35 28 -10 -3
-11 11 -1 20 8 9 33 -12 33 -28z m177 29 c-3 -3 -12 -4 -19 -1 -8 3 -5 6 6 6
11 1 17 -2 13 -5z m-1427 -19 c-7 -8 -16 -15 -21 -15 -5 0 -9 7 -9 15 0 9 9
15 21 15 18 0 19 -2 9 -15z m-36 -11 c4 -9 5 -17 4 -18 -2 -1 -12 -9 -24 -19
-21 -18 -21 -17 -10 18 12 38 21 44 30 19z m852 -9 c-11 -8 -25 -15 -30 -15
-6 1 0 7 14 15 32 19 40 18 16 0z m-754 -37 c-11 -11 -32 -3 -32 12 0 4 9 6
21 3 13 -4 17 -9 11 -15z m1138 -22 c0 -5 -7 -1 -15 10 -8 10 -14 24 -14 29 0
6 6 1 14 -9 8 -11 15 -24 15 -30z m-1750 24 c0 -5 -4 -10 -9 -10 -5 0 -16 -3
-25 -6 -9 -3 -16 -1 -16 4 0 9 16 17 43 21 4 0 7 -3 7 -9z m1810 -34 c-1 -21
-1 -21 -15 -2 -19 25 -19 37 0 30 8 -4 15 -16 15 -28z m-2499 -9 c-5 -5 -17
-4 -28 3 -16 10 -16 11 0 6 11 -4 17 0 17 12 0 14 2 15 10 2 5 -8 5 -19 1 -23z
m519 21 c0 -10 -23 -15 -42 -10 -28 7 -21 17 12 17 17 0 30 -3 30 -7z m760
-13 c0 -8 -9 -19 -20 -25 -23 -12 -27 -1 -9 31 11 21 29 17 29 -6z m-438 3
c-9 -9 -15 -9 -24 0 -9 9 -7 12 12 12 19 0 21 -3 12 -12z m68 2 c0 -5 -2 -10
-4 -10 -3 0 -8 5 -11 10 -3 6 -1 10 4 10 6 0 11 -4 11 -10z m1625 0 c3 -5 1
-10 -4 -10 -6 0 -11 5 -11 10 0 6 2 10 4 10 3 0 8 -4 11 -10z m-1407 -20 c-15
-23 -28 -26 -28 -7 0 17 10 27 27 27 11 0 11 -4 1 -20z m1357 -7 c27 -31 31
-48 14 -59 -8 -4 -9 1 -5 17 3 13 3 18 0 12 -3 -7 -10 -13 -15 -13 -6 0 -9 6
-7 13 1 6 -3 22 -10 35 -17 30 -6 28 23 -5z m-1835 13 c0 -3 -4 -8 -10 -11 -5
-3 -10 -1 -10 4 0 6 5 11 10 11 6 0 10 -2 10 -4z m215 -6 c3 -5 1 -10 -4 -10
-6 0 -11 5 -11 10 0 6 2 10 4 10 3 0 8 -4 11 -10z m355 -1 c0 -6 -8 -8 -17 -5
-17 6 -17 5 0 -8 9 -7 17 -16 17 -19 0 -3 -8 -8 -17 -10 -14 -4 -12 -5 5 -6
24 -1 31 -21 7 -21 -8 0 -15 -4 -15 -10 0 -5 4 -10 10 -10 15 0 0 -33 -24 -52
-13 -11 -16 -18 -8 -18 7 0 10 -4 7 -10 -3 -5 -15 -10 -26 -10 -10 0 -19 5
-19 10 0 6 -10 10 -22 11 -20 0 -19 2 10 16 17 9 32 21 32 27 0 6 -5 5 -12 -2
-7 -7 -19 -12 -27 -12 -11 0 -10 4 4 20 10 11 24 20 31 20 8 0 11 6 8 15 -10
25 16 85 37 85 10 0 19 -5 19 -11z m-535 -9 c3 -5 1 -10 -4 -10 -6 0 -11 5
-11 10 0 6 2 10 4 10 3 0 8 -4 11 -10z m606 -12 c-8 -23 -51 -38 -51 -19 0 6
6 11 14 11 8 0 16 7 20 15 3 8 10 15 15 15 7 0 7 -9 2 -22z m742 7 c-3 -9 -8
-14 -10 -11 -3 3 -2 9 2 15 9 16 15 13 8 -4z m98 -8 c-10 -9 -11 -8 -5 6 3 10
9 15 12 12 3 -3 0 -11 -7 -18z m-1402 -1 c9 -11 6 -15 -14 -18 -19 -4 -23 -2
-15 7 5 6 7 15 3 18 -3 4 -2 7 4 7 6 0 16 -6 22 -14z m1329 -16 c-1 -20 -5
-27 -11 -21 -5 5 -6 18 -2 30 9 30 14 26 13 -9z m122 26 c0 -3 -4 -8 -10 -11
-5 -3 -10 -1 -10 4 0 6 5 11 10 11 6 0 10 -2 10 -4z m-1051 -67 c-31 -24 -39
-24 -39 0 0 10 10 25 23 34 20 13 23 13 31 -1 6 -11 2 -20 -15 -33z m978 11
c-7 -17 -13 -26 -15 -21 -3 10 15 51 22 51 3 0 -1 -14 -7 -30z m-1339 0 c28
-26 28 -30 0 -30 -17 0 -19 3 -10 9 10 6 7 10 -12 15 -15 4 -24 11 -21 16 9
15 19 12 43 -10z m-879 -19 c0 -10 -2 -11 -6 -3 -2 6 -9 10 -14 6 -5 -3 -9 2
-9 10 0 10 6 13 15 10 8 -4 15 -14 14 -23z m921 19 c0 -5 7 -10 15 -10 8 0 15
-4 15 -10 0 -14 -23 -13 -38 2 -15 15 -16 28 -2 28 6 0 10 -4 10 -10z m464 -6
c5 -12 2 -15 -10 -10 -8 3 -18 6 -20 6 -3 0 -2 5 1 10 9 15 22 12 29 -6z
m1216 -46 c0 -10 -2 -18 -4 -18 -14 0 -36 14 -36 22 0 5 5 6 11 2 9 -5 10 1 5
22 -7 28 -7 28 8 9 8 -11 16 -28 16 -37z m59 16 c15 -33 11 -38 -17 -18 -12 8
-19 21 -16 29 9 22 19 18 33 -11z m-1655 -32 c21 -24 12 -46 -15 -39 -11 3
-19 1 -19 -4 0 -5 7 -9 15 -9 17 0 19 -9 5 -30 -9 -13 -14 -11 -35 13 -14 16
-23 32 -20 37 3 4 -3 11 -12 14 -15 6 -15 8 -3 16 13 9 13 10 0 11 -8 1 -19 1
-25 -1 -7 -1 -7 2 0 8 13 14 56 20 75 11 8 -4 23 -16 34 -27z m1249 -67 c4 -8
2 -17 -3 -20 -6 -4 -10 -4 -10 -1 0 2 -3 11 -6 20 -3 9 -2 16 4 16 5 0 12 -7
15 -15z m117 -15 c0 -5 -4 -10 -10 -10 -5 0 -10 5 -10 10 0 6 5 10 10 10 6 0
10 -4 10 -10z m-1130 -31 c-13 -23 -26 -25 -34 -4 -3 8 2 19 12 24 23 13 34 3
22 -20z m-10 -148 c0 -17 -18 -21 -24 -6 -3 9 0 15 9 15 8 0 15 -4 15 -9z
m993 -72 c4 -16 3 -18 -9 -8 -7 6 -11 15 -8 20 8 13 11 11 17 -12z m-955 -232
c11 -12 23 -33 26 -47 6 -23 5 -24 -6 -6 -7 11 -28 34 -46 52 -25 24 -28 31
-13 27 10 -3 28 -15 39 -26z m1085 -39 c-10 -11 -19 -15 -21 -8 -5 15 18 41
30 34 5 -3 1 -15 -9 -26z m-992 -115 c13 -16 12 -17 -3 -4 -17 13 -22 21 -14
21 2 0 10 -8 17 -17z m-7 -209 c3 -8 2 -12 -4 -9 -6 3 -10 10 -10 16 0 14 7
11 14 -7z m361 -284 c10 -11 16 -20 13 -20 -3 0 -13 9 -23 20 -10 11 -16 20
-13 20 3 0 13 -9 23 -20z m-155 -55 c0 -11 -14 7 -31 40 -7 13 -3 12 10 -5 11
-14 21 -29 21 -35z m110 -5 c0 -5 -2 -10 -4 -10 -3 0 -8 5 -11 10 -3 6 -1 10
4 10 6 0 11 -4 11 -10z m-127 -50 c3 -11 1 -23 -4 -26 -5 -3 -9 6 -9 20 0 31
6 34 13 6z m162 -10 c3 -5 1 -10 -4 -10 -6 0 -11 5 -11 10 0 6 2 10 4 10 3 0
8 -4 11 -10z m20 -80 c3 -5 1 -10 -4 -10 -6 0 -11 5 -11 10 0 6 2 10 4 10 3 0
8 -4 11 -10z m-705 -10 c0 -5 -5 -10 -11 -10 -5 0 -7 5 -4 10 3 6 8 10 11 10
2 0 4 -4 4 -10z m200 -46 c0 -8 -4 -14 -10 -14 -5 0 -10 9 -10 21 0 11 5 17
10 14 6 -3 10 -13 10 -21z m238 1 c-3 -3 -9 2 -12 12 -6 14 -5 15 5 6 7 -7 10
-15 7 -18z m38 -2 c0 -10 4 -17 10 -16 7 1 10 -6 7 -16 -3 -11 2 -21 11 -24 9
-4 16 -11 16 -17 0 -6 -4 -9 -9 -6 -5 4 -11 1 -13 -6 -7 -20 -28 2 -28 28 0
14 -4 23 -8 20 -4 -2 -14 -1 -21 3 -11 7 -10 13 5 29 24 26 32 27 30 5z m-766
-26 c0 -2 -11 -14 -25 -27 -19 -18 -25 -20 -25 -8 0 8 10 20 23 26 26 13 27
13 27 9z m250 -7 c0 -6 10 -15 23 -20 12 -5 16 -9 10 -9 -7 -1 -13 -6 -13 -12
0 -5 5 -7 10 -4 6 3 10 1 10 -4 0 -6 9 -11 19 -11 23 0 38 -19 24 -29 -5 -3
-15 -15 -21 -26 -6 -11 -12 -14 -12 -7 0 9 -7 11 -20 7 -18 -6 -20 -3 -15 18
5 19 2 28 -14 37 -12 6 -19 15 -16 21 4 5 -4 9 -16 9 -22 0 -22 0 -3 19 21 22
34 26 34 11z m138 -21 c-3 -8 -7 -3 -11 10 -4 17 -3 21 5 13 5 -5 8 -16 6 -23z
m154 -41 c-2 -10 -9 -18 -14 -18 -5 0 -6 9 -3 20 4 12 0 26 -9 36 -9 8 -16 20
-16 25 0 6 11 -2 24 -17 13 -16 21 -36 18 -46z m-453 31 c-19 -11 -24 -3 -8
14 8 9 16 11 18 5 2 -6 -3 -14 -10 -19z m861 -46 c0 -7 7 -13 15 -13 8 0 15
-4 15 -10 0 -5 8 -10 17 -10 14 0 13 -3 -6 -16 -22 -16 -24 -15 -55 15 -17 17
-37 31 -44 31 -7 0 -12 5 -12 10 0 6 12 10 26 10 24 0 25 2 13 18 -11 14 -10
13 9 -2 12 -11 22 -25 22 -33z m-89 9 c12 -31 -3 -28 -18 4 -8 17 -8 24 -1 22
6 -2 15 -14 19 -26z m-795 -8 c-4 -9 -9 -15 -11 -12 -3 3 -3 13 1 22 4 9 9 15
11 12 3 -3 3 -13 -1 -22z m44 16 c0 -5 -4 -10 -10 -10 -5 0 -10 5 -10 10 0 6
5 10 10 10 6 0 10 -4 10 -10z m103 -17 c8 -16 12 -34 10 -40 -3 -7 2 -13 11
-13 9 0 16 -4 16 -9 0 -13 -28 -22 -35 -10 -4 5 -15 -1 -25 -13 -10 -13 -15
-25 -10 -28 4 -3 2 -11 -6 -18 -8 -7 -14 -8 -14 -2 0 5 -8 10 -19 10 -10 0
-21 8 -25 18 -3 9 -9 23 -12 30 -10 21 25 13 36 -8 6 -11 16 -18 21 -14 7 4 7
10 1 16 -6 6 -8 18 -5 27 6 19 37 81 40 81 1 0 9 -12 16 -27z m372 5 c6 -4 2
-8 -7 -8 -10 0 -18 7 -18 17 0 9 3 12 8 7 4 -5 12 -12 17 -16z m65 -3 c0 -8 8
-19 18 -24 15 -9 15 -12 2 -21 -23 -15 -37 -12 -43 10 -3 11 -1 20 5 20 5 0 6
10 3 21 -5 15 -4 19 4 15 6 -4 11 -13 11 -21z m-792 -11 c-9 -10 -21 -13 -29
-8 -9 5 -8 9 7 15 31 12 39 10 22 -7z m644 -6 c-21 -21 -13 -36 25 -49 l36
-12 -24 -19 c-13 -10 -44 -29 -69 -41 -25 -13 -57 -31 -72 -41 -17 -11 -28
-14 -28 -7 0 6 7 11 15 11 8 0 15 5 15 10 0 6 7 10 15 10 8 0 15 7 15 15 0 8
5 15 10 15 18 0 11 30 -7 31 -17 1 -17 2 0 6 9 2 17 9 17 14 0 5 -8 9 -17 9
-13 1 -9 8 17 30 33 29 78 44 52 18z m-362 -22 c0 -3 -4 -8 -10 -11 -5 -3 -10
-1 -10 4 0 6 5 11 10 11 6 0 10 -2 10 -4z m131 -39 c-10 -9 -11 -8 -5 6 3 10
9 15 12 12 3 -3 0 -11 -7 -18z m692 -4 c-7 -2 -21 -2 -30 0 -10 3 -4 5 12 5
17 0 24 -2 18 -5z m95 -3 c10 0 13 -3 6 -10 -11 -11 -54 -2 -54 12 0 6 7 7 16
4 9 -3 23 -6 32 -6z m-956 -24 c4 -6 8 -18 8 -26 0 -13 -2 -13 -9 -1 -8 12
-13 12 -35 -2 -31 -21 -37 -21 -30 -2 4 8 15 15 25 15 33 0 20 20 -13 21 -31
1 -31 1 -8 8 28 8 51 3 62 -13z m1148 20 c0 -2 -7 -7 -16 -10 -8 -3 -12 -2 -9
4 6 10 25 14 25 6z m-1010 -11 c0 -2 -10 -10 -22 -16 -21 -11 -22 -11 -9 4 13
16 31 23 31 12z m-260 -35 c0 -5 -2 -10 -4 -10 -3 0 -8 5 -11 10 -3 6 -1 10 4
10 6 0 11 -4 11 -10z m400 -20 c0 -5 -5 -10 -11 -10 -5 0 -7 5 -4 10 3 6 8 10
11 10 2 0 4 -4 4 -10z m-390 -10 c0 -5 -5 -10 -11 -10 -5 0 -7 5 -4 10 3 6 8
10 11 10 2 0 4 -4 4 -10z m60 -10 c0 -5 -8 -10 -17 -10 -15 0 -16 2 -3 10 19
12 20 12 20 0z"/>
<path d="M2045 4040 c-4 -6 -15 -10 -26 -10 -10 0 -19 -4 -19 -9 0 -6 12 -6
31 -1 18 5 36 7 40 4 5 -3 9 -1 9 4 0 14 -28 23 -35 12z"/>
<path d="M1970 3821 c0 -18 4 -21 20 -16 11 3 20 2 20 -3 0 -15 33 -8 38 8 3
7 0 10 -6 6 -6 -3 -13 -2 -17 4 -4 6 -11 8 -16 4 -5 -3 -16 0 -24 6 -12 10
-15 9 -15 -9z"/>
<path d="M1717 3633 c-10 -9 -9 -23 1 -23 5 0 9 7 9 15 0 17 -1 18 -10 8z"/>
<path d="M1785 3590 c3 -5 11 -10 16 -10 6 0 7 5 4 10 -3 6 -11 10 -16 10 -6
0 -7 -4 -4 -10z"/>
<path d="M1690 3520 c0 -5 5 -10 11 -10 5 0 7 5 4 10 -3 6 -8 10 -11 10 -2 0
-4 -4 -4 -10z"/>
<path d="M1735 3520 c-3 -6 0 -12 7 -15 109 -39 118 -41 118 -20 0 15 -10 19
-41 16 -9 -1 -22 5 -29 14 -14 17 -46 20 -55 5z"/>
<path d="M1810 3459 c0 -5 5 -7 10 -4 6 3 10 8 10 11 0 2 -4 4 -10 4 -5 0 -10
-5 -10 -11z"/>
<path d="M1892 3419 c2 -6 8 -10 13 -10 5 0 11 4 13 10 2 6 -4 11 -13 11 -9 0
-15 -5 -13 -11z"/>
<path d="M1775 3380 c-3 -5 -3 -10 2 -10 4 0 1 -5 -7 -11 -12 -8 -12 -10 5 -7
11 2 21 11 23 21 4 18 -13 24 -23 7z"/>
<path d="M2468 3223 c7 -3 16 -2 19 1 4 3 -2 6 -13 5 -11 0 -14 -3 -6 -6z"/>
<path d="M2875 2920 c-13 -6 -15 -9 -5 -9 8 0 22 4 30 9 18 12 2 12 -25 0z"/>
<path d="M2945 2904 c-10 -8 -16 -16 -13 -19 5 -6 58 11 58 19 0 12 -28 12
-45 0z"/>
<path d="M567 2819 c7 -7 15 -10 18 -7 3 3 -2 9 -12 12 -14 6 -15 5 -6 -5z"/>
<path d="M2785 2820 c-3 -6 1 -7 9 -4 18 7 21 14 7 14 -6 0 -13 -4 -16 -10z"/>
<path d="M2830 2820 c0 -5 5 -10 10 -10 6 0 10 5 10 10 0 6 -4 10 -10 10 -5 0
-10 -4 -10 -10z"/>
<path d="M630 2440 c0 -5 5 -10 11 -10 5 0 7 5 4 10 -3 6 -8 10 -11 10 -2 0
-4 -4 -4 -10z"/>
<path d="M810 2280 c0 -5 5 -10 11 -10 5 0 7 5 4 10 -3 6 -8 10 -11 10 -2 0
-4 -4 -4 -10z"/>
<path d="M2588 2529 c-31 -18 -20 -24 48 -26 69 -2 80 2 30 11 -16 3 -34 10
-40 16 -12 12 -16 12 -38 -1z"/>
<path d="M2743 2534 c4 -7 -2 -14 -13 -17 -11 -3 -20 -10 -20 -16 0 -15 12
-14 36 3 16 13 17 17 5 28 -8 7 -11 8 -8 2z"/>
<path d="M2105 2240 c-3 -5 -1 -10 4 -10 6 0 11 5 11 10 0 6 -2 10 -4 10 -3 0
-8 -4 -11 -10z"/>
<path d="M2080 2159 c0 -5 5 -7 10 -4 6 3 10 8 10 11 0 2 -4 4 -10 4 -5 0 -10
-5 -10 -11z"/>
<path d="M834 2024 c10 -10 24 -13 37 -9 26 9 18 17 -22 22 -28 3 -29 2 -15
-13z"/>
<path d="M1491 1814 c0 -11 3 -14 6 -6 3 7 2 16 -1 19 -3 4 -6 -2 -5 -13z"/>
<path d="M1157 1779 c7 -7 15 -10 18 -7 3 3 -2 9 -12 12 -14 6 -15 5 -6 -5z"/>
<path d="M1220 201 c0 -6 5 -13 10 -16 6 -3 10 1 10 9 0 9 -4 16 -10 16 -5 0
-10 -4 -10 -9z"/>
<path d="M1117 169 c4 -13 9 -17 15 -11 11 11 3 32 -12 32 -4 0 -6 -9 -3 -21z"/>
<path d="M1380 159 c0 -5 5 -7 10 -4 6 3 10 8 10 11 0 2 -4 4 -10 4 -5 0 -10
-5 -10 -11z"/>
<path d="M2485 4360 c-3 -5 -1 -10 4 -10 6 0 11 5 11 10 0 6 -2 10 -4 10 -3 0
-8 -4 -11 -10z"/>
<path d="M2370 4226 c0 -9 7 -12 20 -9 11 3 20 9 20 14 0 5 -9 9 -20 9 -11 0
-20 -6 -20 -14z"/>
<path d="M2970 4015 c0 -9 6 -12 15 -9 8 4 15 7 15 9 0 2 -7 5 -15 9 -9 3 -15
0 -15 -9z"/>
<path d="M3130 3940 c14 -11 33 -20 44 -20 16 0 87 -32 172 -79 18 -10 47 -30
65 -46 19 -15 53 -36 75 -46 23 -11 47 -26 55 -35 11 -13 25 -15 79 -9 36 4
68 12 72 19 12 17 9 66 -3 66 -5 0 -7 -5 -3 -12 4 -7 3 -8 -4 -4 -7 4 -12 15
-13 24 0 14 -2 13 -9 -3 -12 -27 -12 -7 -1 33 8 27 6 34 -11 47 -12 8 -25 12
-30 9 -4 -3 -8 0 -8 6 0 6 -6 10 -12 8 -21 -4 -90 12 -130 29 -23 9 -44 12
-55 8 -24 -11 -95 -14 -108 -5 -20 14 -59 19 -76 10 -12 -7 -26 -5 -46 5 -15
8 -39 15 -53 15 l-25 0 25 -20z"/>
<path d="M4270 3580 c0 -15 38 -32 45 -20 3 5 -1 10 -9 10 -9 0 -16 5 -16 10
0 6 -4 10 -10 10 -5 0 -10 -4 -10 -10z"/>
<path d="M4255 3540 c3 -5 8 -10 11 -10 2 0 4 5 4 10 0 6 -5 10 -11 10 -5 0
-7 -4 -4 -10z"/>
<path d="M3391 3161 c-8 -5 -9 -11 -3 -15 6 -3 8 -15 5 -26 -8 -29 52 -54 82
-34 18 12 24 12 40 0 17 -13 55 -11 55 3 -1 14 -51 62 -59 57 -5 -4 -11 -2
-13 2 -4 13 -91 23 -107 13z"/>
<path d="M3485 2979 c-16 -5 -36 -7 -44 -4 -9 4 -11 0 -7 -11 3 -8 6 -21 6
-27 0 -7 5 -6 10 3 9 13 13 12 29 -7 21 -26 32 -29 29 -10 -2 8 8 11 32 9 l35
-4 -29 31 c-17 17 -30 31 -30 30 -1 0 -14 -5 -31 -10z"/>
<path d="M2230 2049 c0 -15 18 -19 23 -6 3 8 -1 14 -9 14 -8 0 -14 -4 -14 -8z"/>
<path d="M2020 2021 c0 -5 -9 -7 -20 -4 -13 4 -20 0 -20 -10 0 -8 -7 -17 -15
-21 -8 -3 -15 -11 -15 -17 0 -7 11 -2 25 11 14 13 28 20 32 17 7 -8 33 11 33
24 0 5 -4 9 -10 9 -5 0 -10 -4 -10 -9z"/>
<path d="M1778 1993 c7 -3 16 -2 19 1 4 3 -2 6 -13 5 -11 0 -14 -3 -6 -6z"/>
<path d="M2195 1990 c4 -6 11 -8 16 -5 14 9 11 15 -7 15 -8 0 -12 -5 -9 -10z"/>
<path d="M1888 1983 c7 -3 16 -2 19 1 4 3 -2 6 -13 5 -11 0 -14 -3 -6 -6z"/>
<path d="M1800 1969 c0 -5 9 -9 20 -9 11 0 20 4 20 8 0 4 -9 8 -20 9 -11 1
-20 -2 -20 -8z"/>
<path d="M2035 1970 c-3 -5 1 -10 10 -10 9 0 13 5 10 10 -3 6 -8 10 -10 10 -2
0 -7 -4 -10 -10z"/>
<path d="M1710 1954 c0 -14 3 -14 15 -4 8 7 15 14 15 16 0 2 -7 4 -15 4 -8 0
-15 -7 -15 -16z"/>
<path d="M1881 1954 c0 -11 3 -14 6 -6 3 7 2 16 -1 19 -3 4 -6 -2 -5 -13z"/>
<path d="M1746 1944 c-3 -8 1 -14 9 -14 20 0 28 17 11 23 -8 3 -17 -1 -20 -9z"/>
<path d="M2182 1949 c2 -7 10 -15 17 -17 8 -3 12 1 9 9 -2 7 -10 15 -17 17 -8
3 -12 -1 -9 -9z"/>
<path d="M650 1935 c-7 -8 -8 -15 -2 -15 5 0 15 7 22 15 7 8 8 15 2 15 -5 0
-15 -7 -22 -15z"/>
<path d="M350 1935 c0 -2 10 -10 23 -16 20 -11 21 -11 8 4 -13 16 -31 23 -31
12z"/>
<path d="M2232 1931 c2 -7 7 -12 11 -12 12 1 9 15 -3 20 -7 2 -11 -2 -8 -8z"/>
<path d="M1925 1920 c3 -5 12 -7 20 -3 21 7 19 13 -6 13 -11 0 -18 -4 -14 -10z"/>
<path d="M750 1890 c-9 -6 -10 -10 -3 -10 6 0 15 5 18 10 8 12 4 12 -15 0z"/>
<path d="M1710 1870 c0 -5 5 -10 11 -10 5 0 7 5 4 10 -3 6 -8 10 -11 10 -2 0
-4 -4 -4 -10z"/>
<path d="M745 1850 c3 -5 8 -10 11 -10 2 0 4 5 4 10 0 6 -5 10 -11 10 -5 0 -7
-4 -4 -10z"/>
<path d="M770 1851 c0 -6 6 -11 14 -11 8 0 17 -8 20 -17 3 -11 4 -8 3 7 -2 24
-37 44 -37 21z"/>
<path d="M265 1810 c-4 -12 -5 -24 -2 -27 3 -2 8 5 12 17 4 12 5 24 2 27 -3 2
-8 -5 -12 -17z"/>
<path d="M301 1813 c0 -6 -4 -20 -7 -30 -5 -14 -4 -15 5 -7 7 7 11 20 8 30 -3
11 -5 14 -6 7z"/>
<path d="M740 1810 c0 -12 28 -25 36 -17 3 3 -4 10 -15 17 -15 7 -21 7 -21 0z"/>
<path d="M3860 1780 c-6 -11 -8 -20 -6 -20 3 0 10 9 16 20 6 11 8 20 6 20 -3
0 -10 -9 -16 -20z"/>
<path d="M767 1773 c-4 -3 -7 -11 -7 -17 0 -6 5 -5 12 2 6 6 9 14 7 17 -3 3
-9 2 -12 -2z"/>
<path d="M1011 1764 c0 -11 3 -14 6 -6 3 7 2 16 -1 19 -3 4 -6 -2 -5 -13z"/>
<path d="M1580 1740 c-9 -6 -10 -10 -3 -10 6 0 15 5 18 10 8 12 4 12 -15 0z"/>
<path d="M3853 1734 c-3 -8 -12 -13 -19 -10 -8 3 -14 4 -14 2 0 -3 -3 -12 -7
-22 -6 -16 -4 -16 25 1 32 19 50 45 31 45 -5 0 -12 -7 -16 -16z"/>
<path d="M3847 1663 c-4 -3 -7 -11 -7 -17 0 -6 5 -5 12 2 6 6 9 14 7 17 -3 3
-9 2 -12 -2z"/>
<path d="M3745 1590 c-3 -5 1 -10 9 -10 9 0 16 5 16 10 0 6 -4 10 -9 10 -6 0
-13 -4 -16 -10z"/>
<path d="M2220 1539 c0 -13 -4 -18 -12 -13 -7 4 -8 3 -4 -4 14 -23 50 -4 40
21 -9 24 -24 21 -24 -4z"/>
<path d="M3679 1538 c-6 -12 -15 -25 -18 -28 -27 -20 -105 -160 -90 -160 6 0
13 9 16 19 3 11 15 21 27 23 17 2 20 9 18 33 -2 23 3 32 20 40 13 6 24 21 26
35 2 14 9 31 14 38 6 7 8 15 5 18 -3 3 -11 -5 -18 -18z"/>
<path d="M3730 1545 c-7 -9 -11 -18 -8 -20 3 -3 11 1 18 10 7 9 11 18 8 20 -3
3 -11 -1 -18 -10z"/>
<path d="M2262 1488 c-17 -17 -15 -37 4 -45 12 -4 14 -14 10 -34 -6 -32 4 -38
24 -14 9 11 9 22 1 45 -5 17 -8 37 -5 45 7 18 -17 20 -34 3z"/>
<path d="M2327 1353 c-4 -3 -7 -11 -7 -17 0 -6 5 -5 12 2 6 6 9 14 7 17 -3 3
-9 2 -12 -2z"/>
<path d="M3504 1177 c-8 -21 2 -35 16 -21 5 5 6 15 0 24 -8 12 -10 12 -16 -3z"/>
<path d="M1848 763 c6 -10 29 -36 51 -57 22 -22 38 -43 35 -48 -3 -4 0 -8 6
-8 6 0 9 -3 7 -7 -3 -5 15 -30 40 -58 48 -54 48 -44 -1 20 -26 34 -21 32 34
-20 36 -33 67 -62 70 -65 13 -15 90 -71 90 -66 0 2 -17 25 -37 50 -21 24 -51
63 -68 86 -37 51 -123 127 -188 164 -40 23 -47 24 -39 9z"/>
<path d="M370 664 c0 -14 3 -14 15 -4 8 7 15 14 15 16 0 2 -7 4 -15 4 -8 0
-15 -7 -15 -16z"/>
<path d="M324 649 c-3 -6 0 -15 7 -20 13 -7 28 5 29 24 0 11 -28 8 -36 -4z"/>
<path d="M11 641 c-11 -7 -9 -13 8 -30 21 -21 21 -21 21 -1 0 11 0 23 1 27 1
12 -15 14 -30 4z"/>
<path d="M117 634 c-7 -7 24 -44 38 -44 5 0 3 5 -5 11 -11 8 -12 12 -2 16 6 2
10 9 6 14 -6 10 -28 12 -37 3z"/>
<path d="M73 623 c-14 -5 -18 -24 -5 -21 4 0 15 -2 25 -7 10 -4 20 -5 22 -3 9
8 -30 36 -42 31z"/>
<path d="M218 613 c7 -3 16 -2 19 1 4 3 -2 6 -13 5 -11 0 -14 -3 -6 -6z"/>
<path d="M6 581 c-3 -5 1 -11 9 -15 8 -3 15 -1 15 4 0 13 -18 22 -24 11z"/>
<path d="M1979 553 c26 -38 49 -56 33 -27 -6 11 -20 28 -33 39 l-23 20 23 -32z"/>
<path d="M0 536 c0 -2 8 -10 18 -17 15 -13 16 -12 3 4 -13 16 -21 21 -21 13z"/>
<path d="M2932 390 c-16 -18 -28 -20 -76 -16 -53 4 -79 -5 -56 -19 6 -4 8 -11
5 -16 -10 -16 -44 -10 -65 11 -11 11 -24 20 -30 20 -5 0 -10 4 -10 9 0 5 -9 7
-20 4 -11 -3 -20 -9 -20 -13 0 -5 -10 -12 -22 -16 l-21 -6 22 -12 c12 -7 61
-13 109 -14 95 -2 142 -9 142 -21 0 -4 -15 -6 -32 -4 -29 4 -31 3 -14 -8 10
-6 53 -13 95 -14 42 -2 88 -8 104 -14 22 -9 27 -8 27 5 0 9 5 12 12 8 7 -4 8
-3 4 4 -5 8 -38 12 -91 12 -46 0 -86 4 -90 9 -3 6 24 9 70 7 41 -1 75 1 75 5
0 8 -42 54 -77 82 -20 18 -22 18 -41 -3z m-45 -47 c-10 -9 -56 -10 -51 -1 3 4
17 8 31 8 15 0 23 -3 20 -7z m170 -69 c-3 -3 -12 -4 -19 -1 -8 3 -5 6 6 6 11
1 17 -2 13 -5z"/>
<path d="M2120 391 c0 -10 19 -25 25 -20 1 2 -3 10 -11 17 -8 7 -14 8 -14 3z"/>
<path d="M2490 381 c8 -4 28 -11 44 -15 24 -6 27 -5 18 6 -6 8 -26 15 -44 16
-23 1 -28 -1 -18 -7z"/>
<path d="M3270 376 c0 -8 -3 -23 -7 -33 -6 -16 -5 -16 10 -4 18 15 23 51 7 51
-5 0 -10 -6 -10 -14z"/>
<path d="M3450 364 c-12 -22 -12 -27 0 -34 13 -8 12 -10 -2 -10 -9 0 -19 4
-23 9 -3 6 -25 13 -49 16 -37 6 -47 4 -66 -15 -25 -25 -41 -22 -55 8 -11 25
-30 31 -21 6 4 -12 1 -14 -14 -9 -14 5 -20 2 -20 -9 0 -10 9 -16 25 -16 14 0
25 -4 25 -8 0 -13 -64 -11 -73 2 -4 6 -6 0 -5 -13 3 -24 -11 -31 -69 -33 -13
0 -23 -3 -23 -7 0 -10 180 -94 187 -87 4 4 -2 9 -14 12 -27 7 -19 34 10 34 11
0 36 -5 54 -12 27 -10 38 -10 54 0 16 10 20 10 25 -3 3 -8 10 -13 14 -10 5 3
11 1 15 -5 3 -5 -1 -10 -11 -10 -13 0 -14 -3 -4 -15 10 -12 10 -15 -3 -15 -8
0 -17 7 -21 15 -3 8 -12 15 -21 15 -21 0 -19 -9 7 -31 11 -11 17 -19 12 -19
-6 0 -15 5 -21 11 -14 14 -61 1 -59 -17 4 -25 21 -34 66 -35 32 -1 57 -10 87
-31 24 -16 47 -27 52 -23 5 3 12 1 15 -4 4 -5 -2 -12 -11 -14 -10 -3 -3 -5 15
-6 18 0 31 3 28 7 -6 10 40 10 50 0 4 -5 93 -8 198 -7 126 0 181 4 162 9 -16
5 -33 7 -37 5 -3 -3 -12 1 -18 9 -7 8 -23 17 -36 20 -14 4 -25 12 -25 19 0 9
-2 9 -8 0 -5 -7 -19 -9 -42 -4 l-34 7 42 21 c37 18 43 19 54 5 10 -11 27 -13
76 -9 42 4 61 3 56 -4 -3 -6 0 -10 7 -8 32 4 48 -2 43 -15 -3 -8 4 -16 18 -20
28 -7 88 -8 88 -1 0 9 -40 45 -49 45 -5 0 -11 6 -14 14 -3 8 -18 16 -34 18
-15 2 -28 8 -28 15 0 17 -15 29 -15 12 -1 -9 -8 -5 -21 10 -14 17 -17 26 -8
32 6 4 8 12 5 18 -11 17 18 13 40 -6 11 -10 35 -26 52 -35 27 -14 32 -15 32
-3 0 8 -6 15 -14 15 -7 0 -20 8 -27 17 -12 15 -12 16 4 10 25 -9 41 1 27 18
-6 7 -25 11 -47 8 -29 -3 -42 2 -65 24 l-30 28 -23 -27 c-14 -16 -27 -23 -30
-18 -4 6 -11 8 -16 4 -6 -3 -13 3 -16 15 -3 12 -9 21 -14 21 -5 0 -9 7 -9 15
0 8 3 14 8 14 21 -4 23 3 7 21 -23 25 -35 25 -35 1 0 -11 -7 -26 -15 -35 -9
-8 -12 -22 -8 -32 4 -12 3 -15 -5 -10 -7 4 -12 13 -12 21 0 7 -9 17 -20 20
-11 3 -20 13 -20 21 0 8 -4 14 -10 14 -5 0 -10 -9 -10 -20 0 -22 -34 -45 -52
-34 -7 4 -8 3 -4 -4 4 -7 2 -12 -3 -12 -6 0 -11 5 -11 11 0 5 -9 9 -19 7 -10
-2 -27 5 -38 14 -16 15 -22 15 -44 4 -28 -14 -44 -11 -70 15 -20 20 -26 34
-10 24 5 -3 12 -1 16 5 4 6 11 8 16 5 5 -4 9 -2 9 4 0 5 -9 13 -20 16 -11 3
-20 13 -20 21 0 22 -15 16 -30 -12z m-99 -92 c9 -11 4 -12 -28 -6 -57 10 -71
25 -36 40 24 10 30 9 40 -5 7 -9 17 -22 24 -29z m-103 -6 c-7 -8 -16 -12 -21
-9 -11 7 2 23 19 23 12 0 12 -2 2 -14z m602 -16 c0 -5 -5 -10 -11 -10 -5 0 -7
5 -4 10 3 6 8 10 11 10 2 0 4 -4 4 -10z m-157 -54 c21 -16 21 -22 3 -29 -8 -3
-18 5 -25 19 -12 27 -5 30 22 10z m-179 -18 c18 -26 20 -38 7 -38 -5 0 -13 9
-16 20 -5 15 -12 19 -26 15 -21 -7 -27 10 -6 18 21 9 25 8 41 -15z m76 -38 c0
-5 -9 -10 -19 -10 -22 0 -41 -22 -24 -27 6 -2 18 -9 27 -16 14 -10 12 -12 -16
-12 -23 1 -32 5 -30 15 2 7 -2 16 -9 20 -7 5 -2 13 17 23 35 18 54 21 54 7z
m-80 -65 c4 -20 4 -35 -1 -35 -5 0 -9 9 -9 20 0 13 -7 20 -18 20 -15 0 -18 6
-14 30 4 26 6 28 19 14 9 -8 19 -30 23 -49z m-85 45 c3 -5 1 -10 -4 -10 -6 0
-11 5 -11 10 0 6 2 10 4 10 3 0 8 -4 11 -10z m189 -55 c-4 -8 -10 -15 -15 -15
-4 0 -6 7 -3 15 4 8 10 15 15 15 4 0 6 -7 3 -15z m46 -5 c8 -5 11 -10 5 -10
-5 0 -17 5 -25 10 -8 5 -10 10 -5 10 6 0 17 -5 25 -10z"/>
<path d="M2140 336 c0 -2 7 -9 15 -16 9 -7 15 -8 15 -2 0 5 -7 12 -15 16 -8 3
-15 4 -15 2z"/>
<path d="M1900 306 c0 -2 7 -6 15 -10 8 -3 15 -1 15 4 0 6 -7 10 -15 10 -8 0
-15 -2 -15 -4z"/>
<path d="M1850 280 c0 -14 15 -19 29 -11 9 6 7 10 -8 14 -12 3 -21 1 -21 -3z"/>
<path d="M2030 281 c0 -11 45 -44 74 -54 14 -6 17 -4 12 9 -3 8 -6 18 -6 20 0
2 -6 4 -14 4 -7 0 -19 7 -26 15 -14 17 -40 20 -40 6z"/>
<path d="M2213 263 c9 -9 19 -14 23 -11 10 10 -6 28 -24 28 -15 0 -15 -1 1
-17z"/>
<path d="M4089 264 c-11 -14 -10 -18 6 -30 33 -24 40 -19 29 24 -7 26 -17 28
-35 6z"/>
<path d="M2640 240 c0 -5 9 -10 21 -10 11 0 17 5 14 10 -3 6 -13 10 -21 10 -8
0 -14 -4 -14 -10z"/>
<path d="M2930 246 c0 -2 7 -6 15 -10 8 -3 15 -1 15 4 0 6 -7 10 -15 10 -8 0
-15 -2 -15 -4z"/>
<path d="M4190 220 c0 -12 -4 -18 -10 -15 -5 3 -10 4 -10 0 0 -3 12 -10 26
-15 14 -6 22 -14 19 -20 -3 -5 2 -10 12 -10 19 -1 53 -22 53 -34 0 -4 -4 -4
-10 -1 -5 3 -10 -1 -10 -9 0 -9 5 -16 11 -16 6 0 8 -8 4 -19 -9 -28 21 -45 80
-45 61 -1 61 -6 2 -23 -36 -10 -15 -12 145 -11 103 1 185 5 182 10 -3 4 0 8 5
8 6 0 11 -4 11 -10 0 -14 84 -12 98 2 9 9 15 9 24 0 8 -8 57 -12 155 -12 l143
0 0 28 c0 22 -7 30 -31 39 -17 7 -28 17 -24 22 3 7 0 8 -10 5 -11 -4 -14 -2
-9 9 3 8 14 17 25 20 21 6 26 37 6 37 -7 0 -23 -12 -36 -26 -15 -18 -28 -23
-39 -18 -17 7 -32 7 -67 1 -11 -2 -25 3 -32 12 -11 14 -12 14 -13 -2 0 -15 -5
-17 -30 -12 -29 6 -42 -6 -20 -20 18 -11 0 -25 -31 -25 -25 0 -29 -4 -29 -27
0 -22 -2 -25 -10 -13 -5 8 -7 26 -4 40 5 23 4 24 -9 7 -8 -9 -20 -17 -27 -17
-7 0 -2 -9 11 -21 19 -16 20 -19 6 -15 -10 3 -23 6 -28 6 -5 0 -9 14 -9 30 0
17 -5 30 -11 30 -6 0 -9 -7 -5 -15 3 -8 1 -15 -4 -15 -6 0 -10 5 -10 11 0 6
-7 9 -15 6 -15 -6 -39 4 -86 36 -15 10 -37 20 -49 22 -13 2 -31 12 -42 21 -10
10 -37 19 -61 20 -58 4 -72 8 -91 23 -23 19 -66 6 -61 -19 4 -18 2 -19 -28 -6
-23 9 -32 19 -32 36 0 13 -6 25 -13 28 -7 2 -12 -5 -12 -18z m120 -54 c0 -3
-4 -8 -10 -11 -5 -3 -10 -1 -10 4 0 6 5 11 10 11 6 0 10 -2 10 -4z m209 -59
c-2 -1 -13 -9 -24 -17 -19 -14 -19 -14 -6 3 7 9 18 17 24 17 6 0 8 -1 6 -3z
m391 -41 c0 -11 -19 -15 -25 -6 -3 5 1 10 9 10 9 0 16 -2 16 -4z m-313 -25
c17 -1 4 -31 -14 -31 -8 0 -11 4 -8 10 3 5 0 7 -9 4 -8 -3 -24 1 -35 8 -21 15
-15 16 66 9z m68 -11 c-3 -5 -15 -10 -26 -10 -10 0 -19 5 -19 10 0 6 12 10 26
10 14 0 23 -4 19 -10z"/>
<path d="M4740 210 c0 -11 5 -20 10 -20 6 0 10 9 10 20 0 11 -4 20 -10 20 -5
0 -10 -9 -10 -20z"/>
<path d="M2905 210 c-3 -5 0 -10 7 -11 7 0 29 -2 48 -5 43 -6 83 3 75 16 -8
13 -122 13 -130 0z"/>
<path d="M2140 201 c0 -6 5 -13 12 -17 6 -4 8 -3 4 4 -3 5 0 13 6 15 8 3 6 6
-4 6 -10 1 -18 -3 -18 -8z"/>
<path d="M2880 185 c24 -29 101 -61 85 -36 -11 18 46 4 61 -15 8 -10 13 -13 9
-6 -4 8 2 12 17 12 51 0 -33 33 -117 45 -22 3 -46 8 -54 11 -12 4 -12 2 -1
-11z"/>
<path d="M4901 186 c-9 -10 -9 -16 -1 -21 16 -10 31 7 21 23 -6 10 -10 10 -20
-2z"/>
<path d="M2186 181 c-3 -5 1 -11 9 -15 8 -3 15 -1 15 4 0 13 -18 22 -24 11z"/>
<path d="M2220 158 c0 -14 14 -38 35 -58 19 -18 32 -37 29 -42 -3 -4 -1 -8 5
-8 5 0 11 4 13 8 2 5 14 5 28 1 17 -5 19 -7 7 -8 -10 -1 -16 -5 -12 -11 3 -5
12 -7 19 -4 8 3 17 1 21 -5 3 -6 0 -11 -7 -11 -9 0 -9 -3 2 -10 23 -15 40 -12
34 5 -4 10 0 15 14 15 11 0 22 -5 24 -12 2 -6 34 -13 76 -16 l72 -4 -11 28
c-23 61 -86 102 -192 124 -29 6 -61 13 -72 15 -78 19 -85 18 -85 -7z m30 2 c0
-5 -4 -10 -10 -10 -5 0 -10 5 -10 10 0 6 5 10 10 10 6 0 10 -4 10 -10z"/>
<path d="M4545 169 c-8 -13 -6 -15 23 -23 27 -9 30 9 3 24 -14 7 -22 7 -26 -1z"/>
<path d="M4616 164 c-8 -22 -9 -21 22 -29 58 -17 65 -16 57 2 -4 10 -8 24 -8
31 -1 18 -64 15 -71 -4z"/>
<path d="M4707 173 c-9 -9 -9 -23 1 -22 18 3 32 -2 32 -11 0 -5 -8 -7 -17 -4
-10 2 -7 -1 7 -8 14 -7 28 -17 31 -22 8 -11 39 -1 39 13 0 5 -8 7 -19 4 -11
-3 -21 2 -24 11 -4 10 -1 16 8 16 8 0 15 4 15 10 0 5 -6 7 -14 4 -8 -3 -17 -1
-21 5 -7 12 -28 14 -38 4z"/>
<path d="M3300 160 c0 -5 7 -10 16 -10 8 0 12 5 9 10 -3 6 -10 10 -16 10 -5 0
-9 -4 -9 -10z"/>
<path d="M4192 148 c3 -7 15 -14 29 -16 23 -2 23 -2 5 13 -24 18 -39 20 -34 3z"/>
<path d="M2505 140 c3 -5 11 -10 16 -10 6 0 7 5 4 10 -3 6 -11 10 -16 10 -6 0
-7 -4 -4 -10z"/>
<path d="M4140 141 c0 -11 26 -22 34 -14 3 3 3 10 0 14 -7 12 -34 11 -34 0z"/>
<path d="M2800 130 c0 -5 7 -10 16 -10 8 0 12 5 9 10 -3 6 -10 10 -16 10 -5 0
-9 -4 -9 -10z"/>
<path d="M3058 123 c6 -2 12 -11 12 -19 0 -19 -49 -18 -74 1 -27 20 -33 19
-33 -8 0 -17 8 -27 29 -35 30 -11 30 -11 12 10 -19 20 -19 21 6 13 13 -4 30
-14 38 -21 7 -8 18 -14 23 -14 5 0 9 -9 9 -19 0 -25 18 -37 33 -22 6 6 22 11
37 11 20 0 22 -2 10 -10 -10 -7 25 -10 107 -10 l122 0 -29 31 c-20 22 -42 34
-72 40 -127 22 -156 29 -183 43 -16 9 -37 16 -45 15 -10 0 -11 -2 -2 -6z m67
-51 c-3 -3 -11 0 -18 7 -9 10 -8 11 6 5 10 -3 15 -9 12 -12z"/>
<path d="M4170 60 c8 -5 20 -10 25 -10 6 0 3 5 -5 10 -8 5 -19 10 -25 10 -5 0
-3 -5 5 -10z"/>
<path d="M3930 49 c0 -5 5 -7 10 -4 6 3 10 8 10 11 0 2 -4 4 -10 4 -5 0 -10
-5 -10 -11z"/>
<path d="M4160 36 c0 -2 7 -7 16 -10 8 -3 12 -2 9 4 -6 10 -25 14 -25 6z"/>
<path d="M2880 15 c7 -8 16 -15 21 -15 5 0 9 7 9 15 0 9 -9 15 -21 15 -18 0
-19 -2 -9 -15z"/>
<path d="M2924 19 c-9 -16 2 -22 21 -11 15 8 16 10 1 15 -8 3 -18 2 -22 -4z"/>
<path d="M2990 10 c0 -6 7 -10 15 -10 8 0 15 2 15 4 0 2 -7 6 -15 10 -8 3 -15
1 -15 -4z"/>
</g>
</svg>
